<?xml version="1.0" encoding="UTF-8"?>
<!-- Generator: Adobe Illustrator 21.0.0, SVG Export Plug-In . SVG Version: 6.00 Build 0) -->
<svg xmlns="http://www.w3.org/2000/svg" xmlns:xlink="http://www.w3.org/1999/xlink" id="logo" x="0px" y="0px" viewBox="0 0 400 300" style="enable-background:new 0 0 400 300;" xml:space="preserve"> <style type="text/css"> .st0{fill:#FF5A5F;} </style> <path id="logo_1_" class="st0" d="M210.6,119.6c0,4.4-3.6,8-8,8s-8-3.6-8-8s3.4-8,8-8C207.2,111.7,210.6,115.3,210.6,119.6z M177.8,135.6c0,0.7,0,2,0,2s-3.8-4.9-11.9-4.9c-13.3,0-23.8,10.2-23.8,24.2c0,14,10.3,24.2,23.8,24.2c8.2,0,11.9-5,11.9-5v2.1 c0,1,0.7,1.7,1.7,1.7h9.9v-46c0,0-9.1,0-9.9,0C178.5,133.9,177.8,134.8,177.8,135.6z M177.8,165.1c-1.8,2.7-5.5,5-9.9,5 c-7.8,0-13.8-4.9-13.8-13.2c0-8.3,6-13.2,13.8-13.2c4.3,0,8.2,2.4,9.9,5V165.1z M196.8,133.9h11.8v46h-11.8V133.9z M372.3,132.7 c-8.1,0-11.9,4.9-11.9,4.9v-25.8h-11.8v68.2c0,0,9.1,0,9.9,0c1,0,1.7-0.9,1.7-1.7v-2.1l0,0c0,0,3.8,5,11.9,5 c13.3,0,23.8-10.3,23.8-24.2C396,143,385.5,132.7,372.3,132.7z M370.4,170c-4.5,0-8.1-2.3-9.9-5v-16.4c1.8-2.4,5.8-5,9.9-5 c7.8,0,13.8,4.9,13.8,13.2C384.2,165.1,378.2,170,370.4,170z M342.6,152.6v27.4h-11.8V154c0-7.6-2.4-10.7-9.1-10.7 c-3.6,0-7.2,1.8-9.5,4.5v32.1h-11.8v-46h9.3c1,0,1.7,0.9,1.7,1.7v2c3.4-3.6,8-4.9,12.5-4.9c5.1,0,9.4,1.5,12.9,4.4 C341,140.5,342.6,144.9,342.6,152.6z M271.9,132.7c-8.1,0-11.9,4.9-11.9,4.9v-25.8h-11.8v68.2c0,0,9.1,0,9.9,0c1,0,1.7-0.9,1.7-1.7 v-2.1l0,0c0,0,3.8,5,11.9,5c13.3,0,23.8-10.3,23.8-24.2C295.7,143,285.3,132.7,271.9,132.7z M270,170c-4.5,0-8.1-2.3-9.9-5v-16.4 c1.8-2.4,5.8-5,9.9-5c7.8,0,13.8,4.9,13.8,13.2C283.8,165.1,277.8,170,270,170z M238.1,132.7c3.6,0,5.4,0.6,5.4,0.6v10.9 c0,0-9.8-3.3-15.9,3.7v32.2h-11.8v-46.2c0,0,9.1,0,9.9,0c1,0,1.7,0.9,1.7,1.7v2C229.7,135,234.5,132.7,238.1,132.7z M116.1,175.8 c-0.6-1.5-1.2-3.1-1.8-4.4c-1-2.2-2-4.3-2.8-6.2l-0.1-0.1c-8.4-18.4-17.5-37-27.1-55.3l-0.4-0.7c-1-1.8-2-3.8-2.9-5.8 c-1.2-2.2-2.4-4.5-4.4-6.7c-3.9-4.9-9.5-7.6-15.5-7.6c-6.1,0-11.6,2.7-15.7,7.3c-1.8,2.2-3.2,4.5-4.4,6.7c-1,2-2,3.9-2.9,5.8 l-0.4,0.7c-9.4,18.4-18.6,37-27.1,55.3l-0.1,0.2c-0.9,2-1.8,4-2.8,6.2c-0.6,1.3-1.2,2.8-1.8,4.4c-1.6,4.5-2.1,8.8-1.5,13.2 c1.3,9.2,7.5,16.9,15.9,20.3c3.2,1.3,6.5,2,9.9,2c1,0,2.2-0.1,3.2-0.2c4-0.5,8.2-1.8,12.2-4.2c5-2.8,9.8-6.9,15.2-12.7 c5.4,5.9,10.3,9.9,15.2,12.7c4,2.3,8.2,3.7,12.2,4.2c1,0.1,2.2,0.2,3.2,0.2c3.4,0,6.9-0.6,9.9-2c8.6-3.4,14.6-11.3,15.9-20.3 C118.2,184.6,117.7,180.3,116.1,175.8z M60.9,182.1c-6.6-8.3-10.9-16.2-12.4-22.8c-0.6-2.8-0.7-5.3-0.4-7.5c0.2-2,1-3.7,2-5.1 c2.3-3.3,6.2-5.4,10.8-5.4s8.6,2,10.8,5.4c1,1.5,1.7,3.2,2,5.1c0.4,2.2,0.2,4.8-0.4,7.5C71.8,165.9,67.5,173.7,60.9,182.1z M109.7,187.9c-0.9,6.4-5.1,11.9-11.1,14.3c-2.9,1.2-6.1,1.6-9.3,1.2c-3.1-0.4-6.1-1.3-9.3-3.2c-4.4-2.4-8.8-6.2-14-11.9 c8.1-9.9,13-19,14.8-27.1c0.9-3.8,1-7.2,0.6-10.4c-0.5-3.1-1.6-5.9-3.3-8.3c-3.8-5.5-10.2-8.7-17.3-8.7s-13.5,3.3-17.3,8.7 c-1.7,2.4-2.8,5.3-3.3,8.3c-0.5,3.2-0.4,6.7,0.6,10.4c1.8,8.1,6.9,17.3,14.8,27.2c-5,5.6-9.5,9.4-14,11.9c-3.2,1.8-6.2,2.8-9.3,3.2 c-3.3,0.4-6.5-0.1-9.3-1.2c-6-2.4-10.3-8-11.1-14.3c-0.4-3.1-0.1-6.1,1.1-9.5c0.4-1.2,1-2.4,1.6-3.9c0.9-2,1.8-4,2.8-6.1l0.1-0.2 c8.4-18.2,17.5-36.9,26.9-55l0.4-0.7c1-1.8,2-3.8,2.9-5.6c1-2,2.1-3.8,3.4-5.4c2.6-2.9,6-4.5,9.8-4.5s7.2,1.6,9.8,4.5 c1.3,1.6,2.4,3.4,3.4,5.4c1,1.8,2,3.8,2.9,5.6l0.4,0.7c9.3,18.2,18.4,36.9,26.8,55.1v0.1c1,2,1.8,4.2,2.8,6.1 c0.6,1.5,1.2,2.7,1.6,3.9C109.8,181.6,110.2,184.7,109.7,187.9z"/> </svg>