<?xml version="1.0" encoding="UTF-8"?> <!-- Generator: Adobe Illustrator 23.0.3, SVG Export Plug-In . SVG Version: 6.00 Build 0) --> <svg xmlns:cc="http://creativecommons.org/ns#" xmlns:dc="http://purl.org/dc/elements/1.1/" xmlns:inkscape="http://www.inkscape.org/namespaces/inkscape" xmlns:rdf="http://www.w3.org/1999/02/22-rdf-syntax-ns#" xmlns:sodipodi="http://sodipodi.sourceforge.net/DTD/sodipodi-0.dtd" xmlns:svg="http://www.w3.org/2000/svg" xmlns="http://www.w3.org/2000/svg" xmlns:xlink="http://www.w3.org/1999/xlink" id="Logosvg.com" inkscape:version="0.91 r13725" sodipodi:docname="IMDb yellow.svg" x="0px" y="0px" viewBox="0 0 400 300" style="enable-background:new 0 0 400 300;" xml:space="preserve"> <style type="text/css"> .st0{fill-rule:evenodd;clip-rule:evenodd;fill:#F5C518;} </style> <path id="Yellow" inkscape:connector-curvature="0" class="st0" d="M387.6,224.3V75.4c-1-7.9-7.2-14.2-15.1-15.5H27.6 c-8.6,1.4-15.2,8.8-15.2,17.8V222c0,9.9,8.1,18,18,18h339.2C378.9,240,386.4,233.2,387.6,224.3z"></path> <path id="Black" d="M63.1,94.7h28.4v109.2H63.1V94.7z M151.9,94.7l-6.6,51l-4.1-27.7c-1.2-8.9-2.3-16.7-3.4-23.3H101l0,0v109.2l0,0 h24.8l0.1-72.1l10.5,72.1h17.7l0,0l9.9-73.7l0.1,73.7h24.8l0,0V94.7l0,0H151.9z M229.5,182.4L229.5,182.4L229.5,182.4L229.5,182.4z M263,130.1c0,1,0,2,0,3l0,0v38.3l0,0c0,9.8-0.5,16.3-1.5,19.6c-0.9,3.3-2.5,5.9-4.8,7.7c-2.3,1.9-5.1,3.2-8.5,3.9 s-8.5,1.1-15.3,1.1h-34.4v-109l0,0l0,0h21.2c13.7,0,21.6,0.6,26.5,1.9c4.8,1.3,8.5,3.3,11,6.2c2.5,2.9,4.1,6.1,4.7,9.6 c0,0.2,0.1,0.4,0.1,0.6C262.6,116.3,263,122,263,130.1z M227,185c4.1,0,6.6-0.8,7.5-2.5c0.9-1.6,1.4-6.1,1.4-13.4v-42.3 c0-4.9-0.2-8.1-0.5-9.5s-1-2.4-2.2-3.1c-0.6-0.4-1.5-0.6-2.7-0.8c-0.3,0-0.6-0.1-1-0.1l0,0c-0.8-0.1-1.6-0.1-2.6-0.1V185H227z M336.9,148.2v30.6c0,6.5-0.4,11.4-1.3,14.6c-0.9,3.2-3,6-6.2,8.3c-3.3,2.4-7.1,3.5-11.6,3.5l0,0l0,0c-3.2,0-7.4-0.7-10.2-2.1 c-2.8-1.4-5.3-3.5-7.6-6.3l-1.8,7l0,0h-25.5l0,0V94.7H300l0,0l0,0l0,0v35.5c2.3-2.6,4.8-4.6,7.6-5.9c2.8-1.3,7-1.9,10.2-1.9 c0.2,0,0.5,0,0.7,0c3.5,0.1,6.5,0.6,9.1,1.7c2.8,1.2,4.9,2.8,6.3,4.9c1.4,2.1,2.3,4.2,2.6,6.2C336.8,137.3,336.9,141.6,336.9,148.2z M300.9,187.5c0.6,1.3,1.7,2,3.4,2c1.7,0,4-0.7,4.5-2.1c0.5-1.4,0.8-4.7,0.8-10v-28c0-4.6-0.3-7.6-0.9-9s-2.9-2.1-4.6-2.1 c-0.1,0-0.2,0-0.3,0c-1.5,0.1-2.5,0.7-3,1.8c-0.5,1.2-0.8,4.3-0.8,9.3v28.8C300,183,300.3,186.1,300.9,187.5z"></path> </svg> 