<?xml version="1.0" encoding="UTF-8"?> <!-- Generator: Adobe Illustrator 23.0.3, SVG Export Plug-In . SVG Version: 6.00 Build 0) --> <svg xmlns:cc="http://creativecommons.org/ns#" xmlns:dc="http://purl.org/dc/elements/1.1/" xmlns:rdf="http://www.w3.org/1999/02/22-rdf-syntax-ns#" xmlns:svg="http://www.w3.org/2000/svg" xmlns="http://www.w3.org/2000/svg" xmlns:xlink="http://www.w3.org/1999/xlink" id="logosvg.com" x="0px" y="0px" viewBox="0 0 400 300" style="enable-background:new 0 0 400 300;" xml:space="preserve"> <style type="text/css"> .st0{fill:#262626;} </style> <path id="logosvg.com_1_" class="st0" d="M23.7,94.6C15.7,98,6.8,107.5,4,119.5c-3.5,15.1,11.2,21.5,12.4,19.4 c1.4-2.5-2.6-3.3-3.5-11.1c-1.1-10.1,3.6-21.5,9.6-26.4c1.1-0.9,1.1,0.4,1.1,2.7c0,4.3-0.2,42.4-0.2,50.4c0,10.8-0.4,14.2-1.2,17.5 c-0.8,3.4-2.1,5.7-1.1,6.6c1.1,1,5.8-1.4,8.5-5.2c3.3-4.6,4.4-10,4.6-16c0.2-7.2,0.2-18.6,0.2-25c0-6,0.1-23.4-0.1-33.9 C34.2,95.9,27.1,93.2,23.7,94.6 M309.4,145.1c-0.3,5.6-1.5,10-3,13.1c-3,6-9.2,7.8-11.8-0.8c-1.4-4.7-1.5-12.5-0.5-19.1 c1-6.7,4-11.7,8.8-11.2C307.7,127.6,309.9,133.7,309.4,145.1L309.4,145.1z M228.9,179.9c-0.1,9.3-1.5,17.5-4.7,19.8 c-4.5,3.4-10.4,0.8-9.2-6c1.1-6,6.3-12.2,13.9-19.7C228.9,174.1,228.9,175.8,228.9,179.9L228.9,179.9z M227.6,145 c-0.3,5.1-1.6,10.2-3,13.1c-3,6-9.2,7.9-11.8-0.8c-1.8-5.9-1.3-13.5-0.5-18.3c1.1-6.2,3.9-12,8.8-12 C226,127.1,228.3,132.4,227.6,145L227.6,145z M181,145c-0.3,5.4-1.3,9.9-3,13.2c-3.1,5.9-9.1,7.8-11.8-0.8 c-1.9-6.2-1.3-14.6-0.5-19.2c1.2-6.8,4.2-11.6,8.8-11.1C179.3,127.6,181.6,133.7,181,145L181,145z M394.8,151.3 c-1.2,0-1.7,1.2-2.1,3.2c-1.5,7-3.1,8.6-5.2,8.6c-2.3,0-4.4-3.5-4.9-10.5c-0.4-5.5-0.4-15.6,0.2-25.6c0.1-2.1-0.5-4.1-6-6.1 c-2.4-0.9-5.8-2.1-7.6,2c-4.9,11.8-6.8,21.1-7.2,24.9c0,0.2-0.3,0.2-0.3-0.2c-0.3-3-0.9-8.6-1-20.2c0-2.3-0.5-4.2-3-5.8 c-1.6-1-6.5-2.8-8.3-0.7c-1.5,1.8-3.3,6.5-5.2,12.1c-1.5,4.6-2.5,7.7-2.5,7.7s0-12.3,0-17c0-1.8-1.2-2.4-1.6-2.5 c-1.6-0.5-4.9-1.3-6.2-1.3c-1.7,0-2.1,0.9-2.1,2.3c0,0.2-0.3,16.2-0.3,27.4c0,0.5,0,1,0,1.6c-0.9,5.2-4,12.2-7.3,12.2 c-3.3,0-4.9-2.9-4.9-16.3c0-7.8,0.2-11.2,0.3-16.8c0.1-3.2,0.2-5.7,0.2-6.3c0-1.7-3-2.6-4.4-2.9c-1.4-0.3-2.6-0.5-3.6-0.4 c-1.3,0.1-2.3,1-2.3,2.2c0,0.7,0,1.9,0,1.9c-1.7-2.7-4.5-4.6-6.4-5.2c-5-1.5-10.2-0.2-14.2,5.3c-3.1,4.4-5,9.3-5.8,16.5 c-0.5,5.2-0.4,10.5,0.6,15c-1.2,5-3.3,7.1-5.7,7.1c-3.4,0-5.9-5.6-5.6-15.3c0.2-6.4,1.5-10.9,2.9-17.4c0.6-2.8,0.1-4.2-1.1-5.6 c-1.1-1.3-3.5-1.9-6.9-1.1c-2.4,0.6-5.9,1.2-9.1,1.7c0,0,0.2-0.8,0.3-2.1c0.8-7.1-6.9-6.5-9.3-4.2c-1.5,1.3-2.5,2.9-2.8,5.8 c-0.6,4.5,3.1,6.7,3.1,6.7c-1.2,5.6-4.2,12.8-7.3,18.1c-1.6,2.8-2.9,4.9-4.5,7.1c0-0.8,0-1.7,0-2.5c0-11.7,0.1-20.9,0.2-24.2 c0.1-3.2,0.2-5.7,0.2-6.2c0-1.3-0.8-1.7-2.3-2.4c-1.4-0.5-3-0.9-4.7-1c-2.1-0.2-3.4,1-3.4,2.3c0,0.3,0,1.8,0,1.8 c-1.7-2.7-4.5-4.6-6.4-5.2c-5-1.5-10.2-0.2-14.2,5.3c-3.1,4.4-5.2,10.5-5.8,16.4c-0.5,5.5-0.4,10.2,0.3,14.1c-0.8,3.9-3.1,8-5.7,8 c-3.3,0-5.2-2.9-5.2-16.3c0-7.8,0.2-11.2,0.3-16.8c0.1-3.2,0.2-5.7,0.2-6.3c0-1.7-3-2.6-4.4-2.9c-1.5-0.3-2.7-0.5-3.7-0.4 c-1.3,0.1-2.2,1.2-2.2,2.1v2c-1.7-2.7-4.5-4.6-6.4-5.2c-5-1.5-10.2-0.1-14.2,5.3c-2.6,3.6-4.7,7.6-5.8,16.3 c-0.3,2.5-0.4,4.9-0.4,7.1c-1,6.3-5.6,13.6-9.3,13.6c-2.2,0-4.3-4.2-4.3-13.3c0-12,0.7-29.1,0.9-30.8c0,0,4.7-0.1,5.6-0.1 c2.3,0,4.5,0,7.6-0.1c1.6-0.1,3.1-5.7,1.5-6.4c-0.7-0.3-5.9-0.6-8-0.6c-1.7,0-6.5-0.4-6.5-0.4s0.4-11.4,0.5-12.6 c0.1-1-1.2-1.5-1.9-1.8c-1.8-0.8-3.4-1.1-5.3-1.5c-2.6-0.5-3.8,0-4.1,2.2c-0.4,3.4-0.5,13.3-0.5,13.3c-1.9,0-8.6-0.4-10.5-0.4 c-1.8,0-3.7,7.8-1.3,7.8c2.9,0.1,7.9,0.2,11.2,0.3c0,0-0.1,17.4-0.1,22.8c0,0.6,0,1.1,0,1.7c-1.8,9.5-8.2,14.6-8.2,14.6 c1.4-6.3-1.4-11-6.5-15c-1.9-1.5-5.6-4.3-9.7-7.3c0,0,2.4-2.4,4.5-7.1c1.5-3.4,1.6-7.2-2.1-8c-6.1-1.4-11.1,3.1-12.6,7.9 c-1.2,3.7-0.5,6.4,1.7,9.3c0.2,0.2,0.3,0.4,0.5,0.6c-1.4,2.7-3.3,6.2-4.9,9c-4.4,7.7-7.8,13.8-10.3,13.8c-2,0-2-6.2-2-11.9 c0-5,0.4-12.5,0.7-20.2c0.1-2.6-1.2-4-3.3-5.3c-1.3-0.8-4.1-2.4-5.7-2.4c-2.4,0-9.4,0.3-16,19.4c-0.8,2.4-2.5,6.8-2.5,6.8l0.1-22.9 c0-0.5-0.3-1.1-0.9-1.4c-1.1-0.6-4.1-1.8-6.7-1.8c-1.3,0-1.9,0.6-1.9,1.7l-0.2,35.8c0,2.7,0.1,5.9,0.3,7.3c0.3,1.4,0.7,2.5,1.2,3.2 c0.5,0.7,1.2,1.2,2.2,1.4c1,0.2,6.2,0.9,6.5-1.1c0.3-2.4,0.3-5,3.1-14.6c4.3-15,9.8-22.4,12.5-25c0.5-0.5,1-0.5,1,0.3 c-0.1,3.3-0.5,11.5-0.8,18.5c-0.7,18.7,2.7,22.2,7.6,22.2c3.7,0,9-3.7,14.6-13.1c3.5-5.8,6.9-11.6,9.4-15.7c1.7,1.6,3.6,3.3,5.5,5.1 c4.4,4.2,5.9,8.2,4.9,12c-0.7,2.9-3.5,5.9-8.5,3c-1.4-0.8-2.1-1.5-3.5-2.5c-0.8-0.5-2-0.7-2.7-0.1c-1.9,1.4-2.9,3.2-3.5,5.4 c-0.6,2.1,1.6,3.3,3.8,4.3c1.9,0.9,6,1.6,8.7,1.7c10.2,0.3,18.5-4.9,24.2-18.6c1,11.8,5.4,18.5,12.9,18.5c5.1,0,10.1-6.5,12.3-13 c0.6,2.6,1.6,4.9,2.8,6.8c5.8,9.2,17.1,7.2,22.8-0.6c1.8-2.4,2-3.3,2-3.3c0.8,7.4,6.8,10,10.2,10c3.8,0,7.8-1.8,10.5-8 c0.3,0.7,0.7,1.3,1.1,1.9c5.8,9.2,17.1,7.2,22.8-0.6c0.3-0.4,0.5-0.7,0.7-1l0.2,4.9c0,0-3.2,3-5.2,4.8c-8.8,8-15.4,14.1-15.9,21.2 c-0.6,9,6.7,12.4,12.3,12.8c5.9,0.5,10.9-2.8,14-7.3c2.7-4,4.5-12.6,4.4-21.2c-0.1-3.4-0.1-7.8-0.2-12.4c3.1-3.6,6.5-8.1,9.7-13.4 c3.5-5.8,7.2-13.5,9.1-19.5c0,0,3.2,0,6.7-0.2c1.1-0.1,1.4,0.2,1.2,1c-0.2,1-4.4,16.9-0.6,27.5c2.6,7.2,8.4,9.6,11.8,9.6 c4,0,7.9-3,9.9-7.6c0.2,0.5,0.5,1,0.8,1.4c5.8,9.2,17.1,7.2,22.8-0.6c1.3-1.8,2-3.3,2-3.3c1.2,7.7,7.2,10,10.6,10 c3.6,0,6.9-1.5,9.7-7.9c0.1,2.9,0.3,5.2,0.6,5.9c0.2,0.4,1.2,1,1.9,1.3c3.3,1.2,6.6,0.6,7.8,0.4c0.9-0.2,1.5-0.9,1.6-2.6 c0.2-4.6,0.1-12.4,1.5-18.2c2.4-9.7,4.5-13.5,5.6-15.3c0.6-1,1.2-1.2,1.3-0.1c0,2.2,0.2,8.8,1.1,17.6c0.7,6.5,1.6,10.3,2.3,11.5 c2,3.5,4.4,3.6,6.4,3.6c1.3,0,3.9-0.3,3.6-2.6c-0.1-1.1,0.1-7.7,2.4-17.3c1.5-6.2,4-11.9,5-13.9c0.3-0.8,0.5-0.2,0.5,0 c-0.2,4.3-0.6,18.3,1.1,26c2.4,10.4,9.2,11.6,11.6,11.6c5.1,0,9.3-3.9,10.7-14.1C396.8,153.2,396.3,151.3,394.8,151.3"></path> </svg> 