<?xml version="1.0" encoding="UTF-8"?> <!-- Generator: Adobe Illustrator 23.0.3, SVG Export Plug-In . SVG Version: 6.00 Build 0) --> <svg xmlns:cc="http://creativecommons.org/ns#" xmlns:dc="http://purl.org/dc/elements/1.1/" xmlns:inkscape="http://www.inkscape.org/namespaces/inkscape" xmlns:rdf="http://www.w3.org/1999/02/22-rdf-syntax-ns#" xmlns:sodipodi="http://sodipodi.sourceforge.net/DTD/sodipodi-0.dtd" xmlns:svg="http://www.w3.org/2000/svg" xmlns="http://www.w3.org/2000/svg" xmlns:xlink="http://www.w3.org/1999/xlink" id="logo.svg" inkscape:version="0.92.2 (5c3e80d, 2017-08-06)" sodipodi:docname="Michelin_2017.svg" x="0px" y="0px" viewBox="0 0 400 300" style="enable-background:new 0 0 400 300;" xml:space="preserve"> <style type="text/css"> .st0{fill:#FFFFFF;} .st1{fill:#27509B;} </style> <path id="black_1_" d="M311.7,96.2L311.7,96.2c-0.8-2.2-2.7-4.8-6-5.6c-1.2-2.4-3.6-4-6.4-4c-0.7,0-1.2,0.1-1.5,0.2 c-0.2,0-0.9,0.2-6.3,1.5l-7.9,1.9c0.7-2,0.6-4.1-0.3-5.9c-1.1-2.2-3.3-3.7-5.6-3.7c-0.8,0-1.6,0.2-2.3,0.5l-0.1,0 c-0.3,0.2-0.9,0.4-15,9.6c-0.2,0.1-0.4,0.2-0.5,0.4c-6.9,6-9.4,9.5-10,10.4c-0.3,0.5-0.9,1.4-1.4,2.5c-0.4-0.2-0.7-0.4-1.1-0.5 c-2.8-1.3-5.8-1.9-8.8-1.9c-5.4,0-9.3,2.1-10.3,2.7c-0.5,0.3-2.5,1.5-5.6,3.9c-1.2,0.9-2.3,2-3.3,3.3c-2,0.5-3.7,1-5,1.7 c-1.6,0.8-3.1,2-4.8,3.4l-0.1,0.1c-0.3,0.2-0.6,0.5-0.9,0.7c-0.7,0.6-2.5,2.1-4.3,4.6l-0.2,0c-0.2,0.1-2.5,0.6-5.3,1.9 c-0.7,0.3-1.4,0.7-2.1,1.1c-1.6,0.1-4.1,0.3-7.4,1.3l-0.1,0c-0.3-0.1-2.7-0.5-5.8-0.5c-1.3,0-2.5,0.1-3.7,0.3 c-0.7,0.1-3.3,0.5-5.5,1.1c-1,0.3-3.7,1.2-6.7,3.1c-6.5-1.5-13-2-17.1-2.1c3.9-5.2,5.8-11.3,5.2-16.5c-1.2-9.8-7.8-15.5-10.2-17.3 c-4.1-17.1-16-24.3-25.8-25.5c-1.9-2.3-5.6-3.6-9.8-3.6c-1.7,0-3.3,0.2-4.9,0.7c-5.2,1.5-9.4,5.5-10.2,9.8 c-5.3,4.3-13.4,14.1-11.2,31.7c-2,2.7-5.8,9.5-3.2,19.7c1.8,7,6.2,12.1,12.7,14.8c-5.1,2.4-9.5,5.4-13.3,8.9 c-0.2,0.2-0.5,0.4-0.7,0.6c-8.8,0.5-16.8,4.1-23.2,10.6c-6.7,6.8-10.1,15.1-11.8,20.8L44,183h145.8h0c1-0.2,2.9-0.7,4.8-1.4 c2.5-1,4.4-2.1,5.7-3.4c3-0.4,5.3-1.2,6.8-1.7c0,0,0.5-0.2,0.6-0.2c2.6-0.9,8.7-4,10.9-8.4c4.5-1.7,7.8-4,9.9-6.8 c3.9-0.7,6.9-2.4,8.6-3.3c3.9-2.2,6.6-4.4,8.4-6.6c1.4-1.9,2.3-3.3,3-4.8c1.3-0.7,2.8-1.6,4.8-2.9c6.8-4.6,8.3-12.9,8.4-13.9 c0-0.2,0.1-0.4,0.1-0.6c0.3,0,0.7,0,1,0c6.9,0,15.8-4.3,20.6-6.6l0.1,0c0.7-0.4,1.4-0.7,1.7-0.8c1.6-0.7,4.9-2.4,8.3-4.7 c4.3-2.9,7.3-5.6,8.9-8.1c0.3-0.4,0.5-0.8,0.6-1.3l2.8-1.7c0.8-0.5,1.5-1.3,1.9-2.2c0.8-0.4,1.4-0.8,1.6-0.9 C311.6,101.1,312.5,98.7,311.7,96.2"></path> <path id="white" class="st0" d="M69.7,166.4c-3,7.3-3.2,13.8-3,16.6h-17c2.2-6.7,5.7-12.8,10-17.2c4.3-4.4,9.4-7.2,15.1-8.4 C72.7,160.2,71,163.2,69.7,166.4z M163.3,174.3c-3.4-3.5-6-9.6-6.9-13.8c-1.4-6.9-0.5-13.7,2.8-20c1-2,2.3-3.8,3.8-5.4 c-7.4-1.3-14.4-1.4-16.7-1.4c-0.2,0.5-0.6,1-1.1,1.4c-2.6,2.3-4.9,2.9-3.3,1.1c1.5-1.8,1.4-3.6,1-4.1c-0.4-0.4-1-0.1-1.4,0 c-4.4,1.6-5.2,0.9-4.3,0.4c3.9-2.4,6.2-4.5,7.4-5.9c3.3-3.7,6-9.1,5.4-14.1c-0.7-5.8-4-10.4-7.3-13.1c-0.3-0.2-0.7-0.5-0.8-0.6 c-0.1-0.1-0.2-0.1-0.3-0.2c0,0,0,0,0,0c0,0,0,0,0,0c-0.5-0.4-1.2-0.8-1.8-1c-0.9-0.3-0.6-0.9,0.3-1.1c-0.1-0.5-0.2-1-0.3-1.4 c-0.1-0.4-0.2-0.9-0.4-1.3c-3.9-13-13.1-18.5-20.8-19.3c-0.1,0-0.2,0-0.2,0c-1.8-0.2-3-0.1-3.3-0.2c-1.2-0.2-0.7-0.7,0-1 c0.3-0.1,0.3-0.3,0.2-0.5c-0.9-1.3-5-2.5-9.2-1.4c-2.3,0.6-4.2,2-5.3,3.5c-0.2,0.3-0.4,0.6-0.5,0.9c0,0.1-0.1,0.2-0.1,0.3 c-0.2,0.5,0.5,0.4,0.5,0.4c2-0.4,2.9,0.1,1.3,1c-1,0.5-2.4,1.5-3.4,2.2c-2.3,1.8-5.3,4.7-7.5,9.2c-2,4.1-2.9,8.9-2.8,14.1 c0.1,0.7,0.1,2.1,0.2,2.6c0.1,0.5,0.4,1,1.7,0.9c1.7-0.2,2.8-0.5,1.2,0.7c-0.6,0.5-2.6,2.3-3.7,3.7c-2.3,3-4.1,8.4-2.3,15.2 c1.5,5.9,5.2,9.8,11,11.6c3.5,1,11.4,2.3,17.5,2c0.7,0,0.8,0.1,0.7,0.3c-0.1,0.3-0.6,0.4-1.2,0.5c-1,0.1-3.1,0.5-6.8,0.9 c-0.8,0.1-1.4,0.6-1.5,1c0,0,0,0.1,0,0.1c-0.4,1.6,2.8,3,3.2,3.1c1.3,0.4,0.7,1,0.2,1.1c-2.3,0.4-6.4-0.5-8.8-0.7 c-1.5-0.1-2.6,0.2-3.1,0.4c-5.2,2.3-9.7,5.2-13.4,8.6c-4.1,3.8-7.2,8.3-9.3,13.4l0,0c-2.8,6.8-2.8,12.7-2.7,14.9h111.1 c-2.4,0-4.6-0.3-6.7-0.9C169.1,180.2,165.6,176.6,163.3,174.3z M186.8,175.3c-3.1-1.5-5.9-3.6-8.2-6.1c-2.4-2.6-4.3-6-5.5-9.6 c-1.2-3.7-1.6-7.6-1.2-11.4c0.4-3.8,1.7-7.5,3.8-10.8c1.5-2.3,3.3-4.3,5.4-6c-0.2,0-0.4,0.1-0.7,0.1c0,0-2.7,0.4-4.7,1 c-2,0.6-8.7,3.1-12.3,10.1c-3.6,7-3.2,13-2.4,16.9c0.8,3.9,3.2,9,5.6,11.5c2.4,2.5,5.1,5.1,10.4,6.6c1.9,0.5,3.8,0.7,5.5,0.7 c3.2,0,5.8-0.6,6.4-0.7h0c0.4-0.1,1.3-0.3,2.4-0.7C189.8,176.6,188.3,176,186.8,175.3z M209.1,168.9c-3,0-6-0.6-8.8-1.9 c-3-1.4-5.7-3.4-7.9-6.1c-1.7-2-3.1-4.4-4.3-7.2c-2.4-5.4-2.7-14.5,2.1-21.7c0.1-0.1,0.2-0.2,0.3-0.4c-0.5,0.1-0.9,0.3-1.4,0.5 c-1.1,0.4-2.3,0.9-3.3,1.6c-4.7,3-8.6,8.4-9.2,14.9c-0.6,6.5,1.6,13.1,5.5,17.4c4,4.3,9.4,6.8,14.1,6.8c0.1,0,0.3,0,0.4,0 c4.5,0,7.7-1.3,9.5-1.9l0,0c1.1-0.4,2.7-1.2,4.1-2.1C209.8,168.9,209.5,168.9,209.1,168.9z M214.1,157.8c-3.9-2.1-7.2-5.1-9.7-9.1 l0-0.1l0-0.1c-5-8.4-4.3-15.4-2.7-20c-2.4,1.1-5.4,2.9-7.5,6.1c-3.9,5.8-3.5,13.1-1.7,17.2c1.8,4.1,4.6,8.6,9.9,10.9 c2.4,1.1,4.8,1.5,6.9,1.5c2.5,0,4.7-0.5,6.5-1.2l0,0c1.9-0.6,4-1.6,5.8-2.8C218.9,159.9,216.4,159,214.1,157.8z M226.8,145.1 c-4.5-2.7-7.9-6.7-9.8-11.8c-1.5-3.8-2-8.1-1.4-11.4c0.1-0.5,0.3-1.8,0.9-3.5c-1.3,0.7-3,2.1-4.7,3.4c-2.8,2.2-11.4,11.2-3.5,24.4 c4.4,7,11.2,9.7,16.8,9.7c0.2,0,0.3,0,0.5,0c3.7-0.1,6.7-1.7,8.8-2.9h0c1.8-1,4.7-2.8,6.5-4.9c-0.9,0.1-1.8,0.2-2.9,0.2 C234.2,148.3,230.5,147.2,226.8,145.1z M307.3,97.6c-0.3-1-1.5-2.6-3.4-2.6c-0.4,0-0.7,0.1-1.2,0.2l-0.2,0.1 c-1.3,0.5-2.1,0.6-2.4,0.7l-19,5.6c-0.2,0.1-0.3,0.1-0.5,0c-0.3-0.1-0.6-0.3-0.8-0.7c-0.2-0.5,0.1-1.1,0.7-1.2l21.3-6.3 c0-0.1,0-0.1,0-0.2c-0.4-1.7-1.7-2-2.5-2c-0.3,0-0.5,0-0.6,0.1c-0.4,0.1-23.6,5.7-26.8,6.4c-0.5,0.1-3.5,0.9-5.3,1.7 c-0.6,0.3-0.6-0.3-0.1-0.7c0.4-0.3,3.2-2,5.3-2.7c0.4-0.2,1.1-0.6,1.5-0.9c1.6-1.2,3.5-2.7,5.2-4.9c2.1-2.8,0.4-4.8-0.8-4.8 c-0.1,0-0.3,0-0.4,0.1c-0.6,0.3-14.5,9.3-14.5,9.3c-2.5,2.2-4.3,4-5.7,5.4c-1.1,1.1-2.1,2.2-2.8,3.2c-0.3,0.4-0.5,0.6-0.6,0.8 c-1.3,1.9-1.9,3.2-1.9,3.2c-0.2,0.5-0.4,1.2-0.4,1.2s-5,2.9-6.1,3.5c-2.1,1.1-2.6,2.7-3.2,2.7c-0.9,0,0.4-3.2,1.3-4.6 c0.3-0.5,1-1,1.7-1.5c-2.4-1-4.6-1.4-6.5-1.4c-4.5,0-7.5,2-7.5,2s-1.9,1.1-5.1,3.5c-4.8,3.7-5.7,9.9-5.7,9.9 c-0.8,4.2,0.9,13.6,9,18.4c3.3,2,6.4,2.6,8.8,2.6c3.5,0,5.9-1.2,6.6-1.6c1.2-0.5,2.5-1.2,5.6-3.3c5-3.4,6.1-10.1,6.1-10.1v0 l-1.8,1.2c0,0-4.7,3-7.2,2.6c-2.3-0.3-5.1-3.9-3.9-3.8c0.5,0,3.4,1.5,5.6,0.2c0.8-0.5,4-2.5,6.2-3.7c-0.6-2.5,0.1-3.9,2-2 c1.3,1.4,5.9,1.3,6.8,1.2c0.1,0,0.2,0,0.2,0c0.8-0.1,1.5-0.2,2.2-0.4c6.7-1.4,14.8-5.8,16.9-6.7c2.7-1.1,12.3-6.7,15.1-11 c0.2-0.4,0-0.7,0-0.8c-0.2-0.2-0.9-1-2-1.1c-1.2-0.1-2.5,0.5-4,1.9c-4.9,4.6-10.1,6.1-10.4,6.1c-0.1,0-0.2,0-0.3,0 c-0.4,0-0.8-0.3-1-0.7c-0.1-0.5,0.2-1.1,0.7-1.2c0.1,0,5-1.4,9.5-5.7c1.9-1.7,3.7-2.6,5.5-2.4c1.6,0.1,2.7,1,3.2,1.6 c1-0.6,3.5-2.2,3.5-2.2c0.1,0,0.7-0.5,0-1.5c-0.5-0.7-1-1.1-1.7-1.3c-1.4-0.3-3.6,0.4-6.5,2.3c-5.3,3.4-13.1,5.3-13.4,5.3 c-0.1,0-0.2,0-0.2,0c-0.5,0-0.9-0.3-1-0.8c-0.1-0.5,0.2-1.1,0.7-1.2c0.1,0,7.8-1.8,12.8-5.1c3.4-2.2,6-3,8-2.6 c1.3,0.3,2.4,1.1,3.2,2.5c0,0,0,0.1,0,0.1c0.6-0.3,1.2-0.7,1.6-0.9v0C307.3,98.4,307.5,98.1,307.3,97.6z"></path> <path id="black" d="M124.8,93.2c0,1.3,0.2,2.7,0.5,3.9c0.4,1.3,0.9,2.5,1.6,3.6c0.7,0.9,1.5,1.8,2.6,2.2c0,0,0,0,0,0s0,0,0.1,0 c0.1,0,0.1,0,0.1,0s0,0,0,0c0.3,0.1,0.5,0.1,0.8,0.1c0.4,0,0.9-0.1,1.4-0.2c0.5-0.1,1.1-0.2,1.6-0.5c0.6-0.3,0.9-1.1,1.2-1.7 c0.3-0.7,0.4-1.4,0.4-2.1c0.1-1.3-0.1-2.6-0.5-3.8c0,0.1,0,0.1,0,0.2c0.7,3.3-0.3,6.2-2.2,6.7c-1.9,0.4-4.1-1.8-4.8-5.1 c-0.2-0.9-0.3-1.7-0.2-2.5c0.4,0.6,1,0.9,1.6,0.7c0.8-0.2,1.2-1.2,1-2.3c-0.2-0.9-0.9-1.5-1.6-1.5c0.4-0.6,0.9-1,1.5-1.1 c1.2-0.3,2.6,0.6,3.6,2.1c-0.2-0.5-0.5-0.9-0.8-1.3c-0.8-1-1.8-2-3-2.2c-0.2,0-0.4-0.1-0.7-0.1c-1.1,0-2.3,0.5-3,1.4 C125.1,90.6,124.8,92,124.8,93.2 M124.1,97.2c-0.4-1.4-0.9-3.6-0.7-5.6c0.2-3,1.7-4.6,3.5-5.2c2.2-0.7,4.6,0.4,6,2.1 c0.8,1,1.6,2.4,2.1,3.8c0.2,0.5,0.4,1,0.6,1.5c0.6,1.6,0.8,3.2,0.7,4.7c-0.1,0.9-0.2,1.7-0.5,2.5c-0.3,0.8-0.8,1.9-1.7,2.4 c-0.6,0.3-1.3,0.5-1.9,0.6l0,0c-0.5,0.1-1.1,0.2-1.7,0.2c-0.4,0-0.7,0-1-0.1c-0.1,0-0.1,0-0.2,0l0,0c0,0,0,0,0,0l0,0 c0,0-0.1,0-0.1,0l0,0l0,0c-1.5-0.5-2.4-1.6-3.2-2.6c-0.6-0.9-1.1-1.8-1.4-2.8l0,0c0,0-0.1-0.2-0.2-0.5c-0.1-0.2-0.1-0.4-0.2-0.6l0,0 l0,0C124.2,97.3,124.1,97.2,124.1,97.2 M129.7,102.9C129.7,102.9,129.7,102.9,129.7,102.9C129.7,102.9,129.6,102.9,129.7,102.9 C129.6,102.9,129.6,102.9,129.7,102.9 M107.6,103.8c0.8,1.5,1.8,2.7,2.8,3.3c0.5,0.3,1.1,0.4,1.7,0.4c0.5,0,1.1-0.1,1.7-0.3l0,0 c0.3-0.1,1.2-0.3,1.6-0.5c0.9-0.4,1.6-1.6,1.9-3.2c0.1-0.6,0.2-1.3,0.2-1.9c-0.2,2-1.2,3.6-2.7,4c-2.1,0.5-4.5-1.8-5.3-5.1 c-0.2-0.9-0.3-1.8-0.2-2.6c0.4,0.5,1,0.8,1.6,0.6c0.8-0.2,1.2-1.2,1-2.3c-0.2-0.8-0.9-1.4-1.5-1.5c0.4-0.6,1-1,1.7-1.2 c1.6-0.4,3.3,0.8,4.4,2.7c0-0.1-0.1-0.2-0.1-0.3c-1.1-2.1-2.9-4.4-6.5-3.4c-4.7,1.3-3.6,7.4-3.1,9.3 C107,102.4,107.3,103.1,107.6,103.8 M106.4,104.4c-0.8-1.5-1.2-3-1.5-4.7c-0.2-1.6-0.3-3.3,0-4.9c0.3-1.6,1-3,2.3-4 c1.1-0.8,2.4-1.2,3.8-1.2c0.4,0,0.7,0,1.1,0.1c3.4,0.7,5,3.5,6.3,7.3c1.5,4.3,0.5,9.6-2.3,10.8c-0.7,0.3-1.8,0.6-1.8,0.6 c-0.7,0.2-1.4,0.3-2.1,0.3c-0.8,0-1.6-0.2-2.4-0.6C108.3,107.4,107.2,105.9,106.4,104.4 M133.6,114.7c-4.3,2.3-9.1,3.6-13.9,4.2 c1.3,0.6,2.6,1.1,4.1,1.2c1.3,0.1,2.6-0.1,3.9-0.5c1.3-0.4,2.5-1,3.5-1.8C132.2,117,132.9,115.9,133.6,114.7 M140,110.6 c-0.3,0.1-0.4-0.3-0.5-0.7c-0.8,1.1-2.6,2.8-2.8,3.1c-0.4,0.5-0.7,1.1-1,1.6c-0.5,0.9-1,1.9-1.6,2.8c-0.8,1.2-1.9,2.2-3.2,3 c-2.4,1.4-5.4,2.1-8.1,1.7c-1.5-0.2-2.8-0.8-4.1-1.4c-1.1-0.5-2.2-1.2-3.4-1.3c-1.3,0-2.7,0.1-4.1-0.1c-0.5-0.1-0.9-0.2-1-0.7 c-0.2-0.6,0.2-1.3,0.9-1.3l0,0c0.2,0,0.4,0,0.7,0.1c0.4,0,0.9,0.1,1.3,0.1c4.8,0.2,9.7-0.6,14.4-2c2.8-0.9,5.6-2.1,8-3.8 c1-0.7,2-1.5,2.8-2.4c0.1-0.1,0.2-0.3,0.4-0.5c-0.1-0.1-0.2-0.1-0.2-0.1c-0.2-0.1-0.3-0.5,0.2-0.7c0.5-0.1,1.1,0.1,1.3,0.4 c0.2,0.2,0.5,0.7,0.5,1.2C140.4,109.9,140.3,110.6,140,110.6 M110.8,116.3c-1.2,0.9-1.6,1.5-1.7,1.9c-0.2,0.4-0.2,0.8-0.1,1.1 c0.1,0.2,0,0.4-0.2,0.5l0,0h0c0,0,0,0,0,0c-0.2,0.1-0.4,0-0.4,0c-0.1-0.1-0.2-0.1-0.2-0.3c-0.4-0.8,0-2.5,0.9-3.4 c0.3-0.3,0.8-0.7,1.2-0.8c0.2-0.1,0.6-0.2,0.8,0.1C111.3,115.9,111,116.2,110.8,116.3"></path> <path id="blue" class="st1" d="M159.3,198.3L154,211c-1.5-3.5-5.4-3.5-7-3.6c-3.9-0.1-7.1,0.9-9.4,2c-5.4,2.5-10,10.3-2.4,13.4 c4.2,1.7,9.6,0.3,15.1-0.5l-4.2,10.9c-0.8,0.1-6.8,1.3-13.2,1.5c-11.4,0.3-21.3-4.2-21.3-12.4c-0.2-14.2,14.2-22,24.8-24.2 C141.1,197.1,150.2,196,159.3,198.3z M358.4,222.5c0.1-2.5,0.6-12.4,0.9-18c0.1-2.3-0.4-4.1-1.5-5.3c-1.4-1.4-3.2-1.4-3.2-1.4h-20.3 L321,233.9h14.8l9.4-25.6l-1.1,25.6h24.7l13.3-36.1h-14.6L358.4,222.5z M283.1,197.7h-17l-13.3,36.1H287l4.4-12h-17.1L283.1,197.7z M233.2,207.2h20l3.5-9.5h-36.5l-13.3,36.1h36.9l3.6-9.7H227l1.5-4h19l3.3-8.9h-19L233.2,207.2z M193.7,197.7l-4.8,13H180l4.8-13 h-16.7l-13.3,36.1h16.6l4.5-12.2h8.8l-4.5,12.2H197l13.3-36.1H193.7z M94.6,197.7l-13.3,36.1h17.5l13.3-36.1H94.6z M60,197.7 l-12.8,19.4c0,0,0.8-10.2,1-12.6c0.2-1.9-0.1-6.8-4.6-6.8H23.4l-13.3,36.1H26l9.6-26.1l-2,26.1h14.1l17.3-25.7l-9.4,25.7h16 l13.3-36.1H60z M306.9,197.7l-13.3,36.1h17.5l13.3-36.1H306.9z M31.2,176.7l-3.3,9h358.7l3.3-9H31.2z"></path> </svg> 