<?xml version="1.0" encoding="UTF-8"?> <!-- Generator: Adobe Illustrator 23.0.3, SVG Export Plug-In . SVG Version: 6.00 Build 0) --> <svg xmlns="http://www.w3.org/2000/svg" xmlns:xlink="http://www.w3.org/1999/xlink" id="Horizontal" x="0px" y="0px" viewBox="0 0 400 300" style="enable-background:new 0 0 400 300;" xml:space="preserve"> <title>logo_oculus_horizontal</title> <path transform="matrix(1.4152 0 0 1.4152 -761.3 -550.18)" d="M677.8,481.9c-3.5,0-6.9,1.3-9.4,3.8c-2.5,2.5-3.8,6-3.8,9.4 c0,3.5,1.2,6.9,3.7,9.5s5.9,3.9,9.4,3.9c3.5,0,6.9-1.3,9.4-3.8c2.5-2.5,3.8-6,3.8-9.4c0-3.5-1.2-6.9-3.7-9.5 C684.6,483.3,681.2,481.9,677.8,481.9z M684.7,496.7c-0.1,0.5-0.2,1-0.4,1.4c-0.2,0.4-0.4,0.9-0.6,1.3c-0.2,0.4-0.5,0.8-0.8,1.1 c-0.3,0.3-0.7,0.6-1,0.9c-0.4,0.2-0.8,0.5-1.2,0.6c-0.4,0.2-0.9,0.3-1.4,0.4s-1,0.1-1.5,0.1c-0.5,0-1,0-1.5-0.2 c-0.5-0.1-1-0.2-1.4-0.4c-0.4-0.2-0.8-0.4-1.2-0.6c-0.4-0.2-0.7-0.6-1-0.9c-0.3-0.3-0.6-0.7-0.8-1.1c-0.2-0.4-0.5-0.8-0.6-1.3 c-0.2-0.5-0.3-1-0.4-1.4c-0.1-0.5-0.1-1-0.1-1.5s0-1,0.2-1.5c0.1-0.5,0.2-1,0.4-1.4c0.2-0.4,0.4-0.9,0.6-1.3s0.5-0.8,0.8-1.1 c0.3-0.3,0.7-0.6,1-0.9c0.4-0.2,0.8-0.5,1.2-0.6c0.4-0.2,0.9-0.3,1.4-0.4s1-0.1,1.5-0.1c0.5,0,1,0,1.5,0.2c0.5,0.1,1,0.2,1.4,0.4 c0.4,0.2,0.8,0.4,1.2,0.6c0.4,0.2,0.7,0.6,1,0.9c0.3,0.3,0.6,0.7,0.8,1.1c0.2,0.4,0.5,0.8,0.6,1.3c0.2,0.5,0.3,1,0.4,1.4 c0.1,0.5,0.1,1,0.1,1.5C684.9,495.7,684.8,496.2,684.7,496.7z M628.5,471.7c-3.5-2.8-7.5-4.7-11.8-5.8c-2.5-0.6-5-0.9-7.5-1 c-1.9-0.1-3.8,0-5.6,0h-26.7c-1.9,0-3.8,0-5.6,0c-2.5,0.1-5,0.4-7.5,1c-4.3,1-8.3,3-11.8,5.8c-7,5.6-11,14.1-11,23 c0,9,4.1,17.4,11,23c3.5,2.8,7.5,4.7,11.8,5.8c2.5,0.6,5,0.9,7.5,1c1.9,0.1,3.8,0,5.6,0h26.7c1.9,0,3.8,0,5.6,0c2.5-0.1,5-0.4,7.5-1 c4.3-1,8.3-3,11.8-5.8c7-5.6,11-14.1,11-23C639.5,485.8,635.5,477.3,628.5,471.7z M615.4,502.8c-1.3,0.9-2.8,1.5-4.3,1.7 c-1.5,0.2-3.1,0.2-4.7,0.2H574c-1.6,0-3.1,0-4.7-0.2c-1.6-0.2-3-0.8-4.3-1.7c-2.6-1.8-4.2-4.8-4.2-8c0-3.2,1.6-6.2,4.2-8 c1.3-0.9,2.8-1.5,4.3-1.7c1.5-0.2,3.1-0.2,4.7-0.2h32.4c1.6,0,3.1,0,4.7,0.2c1.6,0.2,3,0.8,4.3,1.7c2.6,1.8,4.2,4.8,4.2,8 C619.7,498,618.1,501,615.4,502.8z M784.8,494.4c0,0.7,0,1.4,0,2.1c0,0.4-0.1,0.9-0.2,1.4c-0.2,0.8-0.4,1.6-0.9,2.3 c-1.1,1.7-3.1,2.6-5.1,2.7c-2,0-4-0.8-5-2.6c-0.4-0.8-0.7-1.5-0.9-2.4c-0.2-1.1-0.3-2.3-0.3-3.4c0-0.8,0-1.5,0-2.2v-3.8v-6h-6v10.3 c0,1,0,2,0,3c0,0.7,0,1.5,0.1,2.2c0.2,1.7,0.5,3.4,1.2,5c1.6,3.2,4.7,5.1,8.1,5.5c1.7,0.2,3.5,0,5.1-0.4c1.6-0.5,3.3-1.3,4.4-2.5 c0,0.8,0.1,1.7,0.2,2.5h5.3v-25.4h-6L784.8,494.4L784.8,494.4z M817.2,497.9c-0.9-2.5-3-4-5.3-4.8c-1.3-0.5-2.6-0.8-3.9-1.1 c-0.6-0.1-1.2-0.2-1.7-0.4c-0.5-0.1-1-0.3-1.5-0.5c-0.5-0.2-1-0.5-1.4-1c-0.3-0.4-0.5-0.8-0.4-1.3c0.1-0.6,0.4-1,0.8-1.4 c0.3-0.2,0.6-0.4,1-0.6c0.5-0.2,1-0.3,1.4-0.4c1-0.1,2,0,2.9,0.2c1.5,0.3,2.8,0.9,4.1,1.7c1-1.4,2-2.7,3-4.1c-2-1.5-4.3-2.4-6.8-2.8 c-1.4-0.2-2.8-0.2-4.1,0c-1.1,0.2-2.1,0.4-3.1,0.8c-1.3,0.6-2.5,1.4-3.4,2.5c-0.7,0.8-1.2,1.7-1.4,2.7c-0.4,1.2-0.4,2.5,0,3.8 c0.4,1.2,1,2.1,1.9,2.9c1.9,1.6,4.5,2.2,6.8,2.7c0.8,0.2,1.6,0.3,2.4,0.6c0.6,0.2,1.3,0.4,1.9,0.8c0.4,0.3,0.9,0.6,1.2,1.1 c0.2,0.4,0.4,0.8,0.3,1.3c0,0.4-0.2,0.8-0.5,1.2c-0.3,0.4-0.7,0.7-1.2,0.9c-0.6,0.3-1.2,0.4-1.9,0.5c-0.9,0.1-1.8,0.1-2.7,0 c-1-0.1-1.9-0.4-2.9-0.7c-1.4-0.5-2.7-1.3-3.9-2.2c-1.1,1.4-2.1,2.9-3.2,4.3c1.9,1.6,4.1,2.7,6.5,3.5c1.3,0.4,2.7,0.6,4.1,0.6 c1.1,0,2.2,0,3.3-0.2c1.4-0.2,2.8-0.7,4-1.4c0.9-0.6,1.7-1.2,2.3-2.1c0.8-1.1,1.4-2.3,1.5-3.7C817.7,500.1,817.6,499,817.2,497.9 L817.2,497.9z M710.4,502.3c-1.4,0.3-2.9,0.3-4.3-0.2s-2.6-1.3-3.5-2.5c-0.8-1.2-1.3-2.6-1.4-4.1c-0.1-1.4,0.2-2.9,0.9-4.2 c0.7-1.4,1.7-2.3,3.1-2.9c0.6-0.2,1.2-0.4,1.8-0.5c0.8-0.1,1.6-0.2,2.4,0c1.5,0.2,2.8,0.7,4.1,1.5c1.2-1.5,2.4-3.1,3.7-4.6 c-2.1-1.7-4.5-2.6-7.1-2.9c-2.6-0.3-5.2,0.1-7.6,1.2c-2.4,1.2-4.3,2.9-5.6,5.3c-1.2,2.3-1.7,5-1.6,7.5c0.1,2.6,0.9,5.2,2.4,7.3 c1.5,2.2,3.7,3.7,6.2,4.6c2.5,0.8,5.2,1,7.7,0.4c2.5-0.6,4.9-1.8,6.8-3.7c-1.4-1.4-2.7-2.9-4.1-4.3 C713.1,501.3,711.8,502,710.4,502.3L710.4,502.3z M753.5,468.9h6.4v38.9h-6.4V468.9z M740.5,494.4c0,0.7,0,1.4,0,2.1 c0,0.4-0.1,0.9-0.2,1.4c-0.2,0.8-0.4,1.6-0.9,2.3c-1.1,1.7-3.1,2.6-5.1,2.7c-2,0-4-0.8-5-2.6c-0.4-0.8-0.7-1.5-0.9-2.4 c-0.2-1.1-0.3-2.3-0.3-3.4c0-0.8,0-1.5,0-2.2v-3.8v-6h-6v10.3c0,1,0,2,0,3c0,0.7,0,1.5,0.1,2.2c0.2,1.7,0.5,3.4,1.2,5 c1.6,3.2,4.7,5.1,8.1,5.5c1.7,0.2,3.5,0,5.1-0.4c1.6-0.5,3.3-1.3,4.4-2.5c0,0.8,0.1,1.7,0.2,2.5h5.1v-25.4h-5.9L740.5,494.4 L740.5,494.4z"></path> </svg> 