<?xml version="1.0" encoding="UTF-8"?> <!-- Generator: Adobe Illustrator 23.0.3, SVG Export Plug-In . SVG Version: 6.00 Build 0) --> <svg xmlns="http://www.w3.org/2000/svg" xmlns:xlink="http://www.w3.org/1999/xlink" id="logosvg.com" x="0px" y="0px" viewBox="0 0 400 300" style="enable-background:new 0 0 400 300;" xml:space="preserve"> <style type="text/css"> .st0{fill:#F15A23;} .st1{fill:#6D6E70;} </style> <path id="orange" class="st0" d="M58.9,85.4c0.7-0.4,1.8-0.1,2.1,0.8c0.3,0.7-0.2,1.4-0.6,1.9c-2.8,3.9-4.6,8.5-5.5,13.2 c-0.5,0.2-0.7,0.8-0.5,1.3c0.3,0.1,0.5,0.2,0.8,0.3c5.4-0.5,10.8-0.4,16.1,0.8c9.6,1.9,18.6,6.8,25.5,13.8 c6.9,6.9,11.7,15.8,13.7,25.4c2.2,10.3,1,21.3-3.4,31c-9.2,19.7-24.7,36.3-43.7,46.8c-0.6,0.3-1.5,0.3-1.9-0.3 c-0.5-0.6-0.3-1.5,0.2-2.1c2.6-3.6,4.3-7.7,5.3-12c0.2-0.9,0.4-1.8,0.4-2.7c-0.3-0.4-0.8-0.3-1.3-0.3c-9.2,0.9-18.7-0.7-27-4.8 c-8.9-4.3-16.5-11.3-21.5-19.9c-4.6-7.9-7.1-17-6.9-26.1c0-8.4,2.3-16.7,6.3-24C26.4,110.4,41.1,95.2,58.9,85.4 M58.4,133.5 c-5.5,0.7-10.5,4-13.6,8.5c-2.1,3.1-3.3,6.9-3.3,10.7c-0.2,5.1,1.9,10.2,5.4,13.8c3.1,3.3,7.3,5.4,11.8,6c4.5,0.6,9.3-0.5,13.1-3 c3.9-2.5,6.9-6.4,8.2-10.8c2.5-7.7-0.5-16.7-7-21.5C68.9,134.1,63.5,132.7,58.4,133.5z"></path> <path id="grey" class="st1" d="M234.1,114.6c3.6-1,7.6,0.5,9.6,3.6c1.4,2.2,1.8,5,1.1,7.4c-1,3.1-3.8,5.6-7.1,6.1 c-3.2,0.5-6.6-0.9-8.5-3.6c-2-2.7-2.1-6.7-0.3-9.5C230,116.7,231.9,115.2,234.1,114.6z M314.4,114.6c4-1,8.5,1.2,10.1,5 c1.7,3.8,0.3,8.7-3.3,10.9c-2.1,1.3-4.7,1.7-7.1,1c-2.3-0.6-4.3-2.3-5.4-4.5c-1.3-2.5-1.2-5.6,0.1-8.1 C309.9,116.8,312,115.1,314.4,114.6z M149.9,123.3c6.2-0.7,12.6,0.2,18.3,2.9c5,2.4,9.3,6.2,12.2,10.8c5.4,8.4,6,19.6,1.7,28.7 c-2.4,5.2-6.4,9.6-11.3,12.6c-8.9,5.5-20.5,6.1-30.1,2c-5.6-2.4-10.5-6.7-13.6-12c-3.6-6-4.8-13.3-3.7-20.2c1-6.1,3.9-11.8,8.3-16.1 C136.5,127.1,143.1,124.1,149.9,123.3 M151.6,137.7c-3.2,0.4-6.2,2.1-8.4,4.5c-5.3,5.9-5.2,15.9,0.2,21.7c2.9,3.2,7.2,4.9,11.5,4.6 c3.7-0.2,7.2-1.9,9.7-4.6c5.6-6.2,5.2-16.9-1.1-22.6C160.3,138.3,155.8,137.1,151.6,137.7z M375.9,129.7c1.8,0,3.6,0,5.4,0 c0,0.4,0,0.8,0,1.2c-0.7,0-1.3,0-2,0c0,1.8,0,3.6,0,5.4c-0.4,0-0.9,0-1.3,0c0-1.8,0-3.6,0-5.4c-0.7,0-1.4,0-2.1,0 C375.9,130.5,375.9,130.1,375.9,129.7z M382.6,129.7c0.5,0,1,0,1.5,0c0.6,1,1.2,2,1.9,2.9c0.7-1,1.3-2,1.9-3c0.5,0,0.9,0,1.4,0 c0,2.2,0,4.4,0,6.6c-0.4,0-0.9,0-1.3,0c0-1.5,0-3,0-4.4c-0.7,1-1.3,2-2,3c-0.7-1-1.4-2.1-2-3.1c0,1.5,0,3,0,4.5c-0.4,0-0.9,0-1.3,0 C382.6,134.1,382.6,131.9,382.6,129.7z M297.2,132.8c0.5-0.4,1.1-0.6,1.7-0.8c0.6,0.3,1.3,0.7,1.3,1.5c0,12.8,0,25.7,0,38.5 c-0.1,4.9-0.8,10.1-3.7,14.3c-2.5,3.8-6.5,6.3-10.8,7.5c-5.5,1.5-11.4,1.6-17,1c-5-0.6-10-1.9-14.6-4.1c-0.8-0.3-1.3-1.2-0.8-2 c1.2-2.6,2.5-5.2,3.8-7.8c0.3-0.9,1.4-1,2.2-0.5c5,2.6,10.6,3.8,16.2,3.3c2.8-0.3,5.7-1.4,7.4-3.7c1.9-2.4,2.1-5.7,2-8.6 c-2.4,2.7-5.4,5-8.9,5.9c-5.5,1.4-11.6,0.3-16.3-2.9c-3.8-2.6-6.4-6.8-7.4-11.2c-0.9-3.7-0.9-7.6-0.1-11.3c0.9-4.6,3.4-8.9,7.1-11.7 c2.4-1.9,5.3-3.1,8.3-3.6c1.8-0.3,3.6-0.2,5.4-0.2c3.7,0,7.5,0,11.2,0c0.4,0,0.9,0,1.2,0.3c0.9,0.8,1.7,1.7,2.6,2.6 C290.9,137,294.1,135,297.2,132.8 M273.1,148.9c-1.8,0.4-3.4,1.4-4.6,2.9c-2.7,3.2-2.5,8.4,0.4,11.4c3.5,3.6,10,3.6,13.5,0 c3.1-3.2,3.1-8.8-0.1-11.9C280,148.7,276.3,148,273.1,148.9z M355.6,137.6c2.9-1.3,6.1-1.5,9.2-1c3.2,0.5,6.3,2,8.3,4.5 c1.9,2.2,2.9,5,3.4,7.9c0.4,2.4,0.3,4.8,0.3,7.2c0,8,0,15.9,0,23.9c0.1,0.9-0.5,1.8-1.5,1.7c-4.2,0-8.5,0-12.7,0 c-0.8,0.1-1.6-0.6-1.5-1.4c0-7.5,0-15,0-22.4c0-2.1-0.5-4.4-2-6c-2.6-2.6-7.7-2-9.6,1.2c-1,1.6-1.2,3.5-1.2,5.3c0,7.3,0,14.6,0,21.9 c0.1,0.7-0.5,1.4-1.2,1.4c-4.1,0-8.2,0-12.4,0c-0.6,0-1.2,0.1-1.7-0.4c-0.5-0.5-0.4-1.3-0.4-1.9c0-13.5,0-27,0-40.5 c-0.1-0.9,0.6-1.7,1.5-1.6c4.1-0.1,8.3,0,12.4,0c0.7,0,1.6,0.3,1.7,1.1c0.1,1.7,0,3.4,0,5.1C350.3,141,352.7,138.8,355.6,137.6z M213.1,138.5c2-1.3,4.4-1.9,6.7-2c0.8-0.1,1.6,0.7,1.5,1.5c0,4.5,0,9,0,13.5c0.1,1-0.9,1.6-1.8,1.5c-3.2,0-6.6,1-8.8,3.5 c-2.4,2.7-3.2,6.4-3.4,10c0,4.6,0,9.2,0,13.8c0.1,0.8-0.7,1.6-1.5,1.5c-4.2,0-8.5,0-12.7,0c-0.8,0.1-1.5-0.6-1.4-1.4 c0-13.9,0-27.8,0-41.7c0-0.9,0.9-1.4,1.7-1.3c4.1,0,8.3,0,12.4,0c0.8,0,1.6,0.6,1.6,1.4c0.1,2.4,0,4.9,0,7.3 C208.6,143.1,210.4,140.3,213.1,138.5z M230,137.3c4-0.1,8,0,12,0c0.6,0,1.3-0.1,1.8,0.5c0.4,0.4,0.4,1,0.4,1.5 c0,13.6,0,27.2,0,40.8c0.1,0.8-0.4,1.8-1.3,1.7c-4.3,0-8.6,0-13,0c-0.9,0.1-1.5-0.9-1.4-1.7c0-13.7,0-27.4,0-41.1 C228.4,138,229.1,137.3,230,137.3z M309.9,137.3c4.2-0.1,8.4,0,12.6,0c0.8-0.1,1.9,0.4,1.9,1.3c0,13.9,0,27.8,0,41.7 c0.1,0.7-0.5,1.5-1.3,1.4c-4.3,0-8.7,0-13,0c-0.7,0.1-1.2-0.5-1.3-1.1c-0.2-1-0.1-2-0.1-2.9c0-12.9,0-25.9,0-38.8 C308.6,138.2,309.1,137.4,309.9,137.3z M310.2,199.6c0.7-0.1,1.4-0.2,2.1-0.3c0,5.6,0,11.1,0,16.7c-0.6,0-1.2,0-1.8,0 c0-0.3-0.1-0.6-0.1-1c-1.6,1-3.7,1.6-5.5,0.9c-1.2-0.4-1.7-1.7-1.7-2.9c0-1.8,0-3.7,0-5.5c0-1.2,0.5-2.6,1.7-3.1 c1.7-0.7,3.6-0.3,5.3-0.1C310.2,202.8,310.2,201.2,310.2,199.6 M305.3,207.6c0,1.7,0,3.5,0,5.2c-0.1,0.6,0.2,1.3,0.9,1.5 c1.5,0.4,2.9-0.4,4.1-1.2c0-2.3,0-4.6,0-6.8c-1.3-0.2-2.6-0.5-3.8-0.2C305.6,206.1,305.2,206.9,305.3,207.6z M322.1,199.6 c0.7-0.1,1.4-0.2,2.1-0.3c0,1.8,0,3.7,0,5.5c1.5-0.6,3.2-0.9,4.9-0.6c1.3,0.3,2.2,1.6,2.2,2.8c0,1.9,0,3.8,0,5.7 c0,1.4-0.9,2.7-2.2,3.1c-2.2,0.7-4.6,0.3-6.9-0.1C322.1,210.4,322.1,205,322.1,199.6 M324.2,206.8c0,2.5,0,5,0,7.5 c1.2,0.1,2.4,0.3,3.6,0c0.7-0.2,1.2-0.8,1.3-1.5c0.2-1.5,0.1-3.1,0.1-4.6c0-0.8-0.1-1.8-0.9-2.1 C326.9,205.6,325.5,206.3,324.2,206.8z M228.5,200.1c2,0,4,0,6,0c1.3,0,2.8,0.2,3.7,1.3c0.9,1.1,0.8,2.6,0.8,3.9 c0,1.2,0,2.6-0.8,3.7c-0.8,1-2.1,1.3-3.2,1.3c-1.4,0.1-2.9,0-4.3,0c0,1.9,0,3.8,0,5.7c-0.7,0-1.4,0-2.1,0 C228.5,210.7,228.5,205.4,228.5,200.1 M230.6,202c0,2.1,0,4.3,0,6.4c1.7-0.1,3.4,0.2,5.1-0.2c1.4-0.4,1.1-2.1,1.1-3.2 c0-1,0.2-2.4-0.9-2.8C234.2,201.7,232.3,202,230.6,202z M351.9,216c0-5.3,0-10.6,0-16c3.1,0,6.3,0,9.4,0c0,0.6,0,1.2,0,1.9 c-2.4,0-4.8,0-7.3,0c0,1.7,0,3.3,0,5c2.2,0,4.5,0,6.7,0c0,0.6,0,1.2,0,1.9c-2.3,0-4.5,0-6.8,0c0,1.8,0,3.5,0,5.3c2.4,0,4.9,0,7.3,0 c0,0.6,0,1.3,0,2C358.2,216,355.1,216,351.9,216z M368.6,200.1c1,0,1.9,0,2.9,0c1.7,5.3,3.6,10.6,5.4,15.9c-0.7,0-1.4,0-2.2,0 c-0.5-1.3-0.9-2.5-1.3-3.8c-2.2,0-4.5,0-6.7,0c-0.4,1.3-0.8,2.5-1.3,3.8c-0.7,0-1.4,0-2.2,0C365,210.7,366.8,205.4,368.6,200.1 M367.2,210.3c1.9,0,3.7,0,5.6,0c-1-2.9-1.8-5.7-2.8-8.6C369,204.6,368.2,207.5,367.2,210.3z M244.4,204.3c1.3-0.3,2.7-0.4,3.9,0 c1.4,0.4,2.4,1.6,2.6,3c0.2,1.4,0.1,2.9,0.1,4.3c0,1.2-0.3,2.5-1.2,3.4c-1,1-2.6,1.3-3.9,1.2c-1.4,0-2.9-0.5-3.7-1.7 c-0.8-1.2-0.7-2.7-0.7-4c0-1.4-0.2-2.9,0.5-4.3C242.5,205.3,243.4,204.6,244.4,204.3 M245.2,206c-1,0.2-1.6,1.2-1.6,2.1 c0,1.5-0.1,3.1,0.1,4.6c0.4,1.7,2.8,2,4.1,1.3c1.2-0.6,1.1-2.2,1.1-3.3c-0.1-1.3,0.2-2.6-0.4-3.8C248,205.8,246.4,205.7,245.2,206z M272.8,204.8c1.3-0.8,2.8-0.8,4.3-0.6c1.2,0.2,2.3,0.9,2.8,2.1c0.6,1.5,0.3,3.2,0.4,4.7c-2.3,0-4.6,0-6.9,0c0,1.1-0.2,2.6,1,3.2 c1.8,0.7,3.7,0.1,5.5-0.2c0.1,0.6,0.2,1.1,0.3,1.7c-2.1,0.6-4.3,0.9-6.4,0.3c-1.4-0.4-2.3-1.8-2.4-3.2c-0.1-1.5,0-3.1,0-4.6 C271.2,206.9,271.7,205.5,272.8,204.8 M274,206.3c-0.9,0.7-0.7,1.9-0.7,2.9c1.6,0,3.3,0,4.9,0c0-1,0.1-2.4-0.9-3.1 C276.3,205.6,274.9,205.7,274,206.3z M283.7,204.3c0.6,0,1.2,0,1.8,0c0,0.5,0.1,1.1,0.1,1.6c1-0.7,2.1-1.3,3.2-1.8 c0.1,0.6,0.2,1.3,0.3,1.9c-1.1,0.6-2.3,1.3-3.3,2c0,2.7,0,5.4,0,8c-0.7,0-1.4,0-2.1,0C283.7,212.1,283.7,208.2,283.7,204.3z M291.2,207.1c0.2-1.5,1.6-2.7,3.1-2.9c1.7-0.3,3.7-0.2,4.9,1.1c1.3,1.6,0.8,3.8,0.9,5.7c-2.3,0-4.6,0-6.9,0c0,1.1-0.2,2.8,1.1,3.3 c1.8,0.5,3.6,0,5.3-0.3c0.1,0.6,0.2,1.1,0.2,1.7c-2.1,0.6-4.5,1-6.6,0.2c-1.5-0.5-2.2-2.2-2.1-3.6 C291.1,210.5,290.9,208.8,291.2,207.1 M294,206.2c-1,0.7-0.9,2-0.9,3.1c1.6,0,3.3,0,4.9,0c0-1,0.2-2.2-0.7-3 C296.4,205.6,295,205.7,294,206.2z M333.3,204.3c0.7,0,1.4,0,2,0c1.1,3.3,2.1,6.6,3.1,9.9c1.1-3.3,2.1-6.6,3.2-9.9 c0.7,0,1.4,0,2.1,0c-1.8,5.5-3.6,11-5.5,16.4c-0.7,0-1.3,0-2,0c0.5-1.5,1.1-3.1,1.6-4.6c-0.2,0-0.6,0-0.8,0 C335.8,212.1,334.5,208.2,333.3,204.3z M253.2,204.3c0.7,0,1.3,0,2,0c0.6,3.2,1.3,6.3,1.9,9.5c0.9-3.2,1.9-6.3,2.8-9.5 c0.8,0,1.7,0,2.5,0c0.9,3.2,1.9,6.3,2.8,9.5c0.7-3.2,1.3-6.3,1.9-9.5c0.7,0,1.3,0,2,0c-0.8,3.9-1.6,7.8-2.5,11.7c-0.9,0-1.7,0-2.6,0 c-0.9-3.2-1.8-6.5-2.8-9.7c-0.9,3.2-1.8,6.5-2.8,9.7c-0.9,0-1.8,0-2.6,0C254.9,212.1,254.1,208.2,253.2,204.3z"></path> </svg> 