<?xml version="1.0" encoding="UTF-8"?> <!-- Generator: Adobe Illustrator 23.0.3, SVG Export Plug-In . SVG Version: 6.00 Build 0) --> <svg xmlns:cc="http://creativecommons.org/ns#" xmlns:dc="http://purl.org/dc/elements/1.1/" xmlns:rdf="http://www.w3.org/1999/02/22-rdf-syntax-ns#" xmlns:svg="http://www.w3.org/2000/svg" xmlns="http://www.w3.org/2000/svg" xmlns:xlink="http://www.w3.org/1999/xlink" id="logosvg.com" x="0px" y="0px" viewBox="0 0 400 300" style="enable-background:new 0 0 400 300;" xml:space="preserve"> <style type="text/css"> .st0{fill-rule:evenodd;clip-rule:evenodd;fill:#1F1F1F;} </style> <path id="logo" class="st0" d="M319.4,199.8c-4.7,6-16.4,10.3-16.4,10.3l-86.5,31.1v-22.9l63.7-22.7c7.2-2.6,8.3-6.3,2.5-8.2 c-5.9-1.9-16.5-1.4-23.7,1.2l-42.4,14.9v-23.8l2.4-0.8c0,0,12.3-4.3,29.5-6.3c17.2-1.9,38.4,0.3,54.9,6.5 C322,185.1,324.1,193.8,319.4,199.8z M224.7,160.7v-58.6c0-6.9-1.3-13.2-7.7-15c-4.9-1.6-8,3-8,9.9v146.8l-39.6-12.6v-175 c16.8,3.1,41.4,10.5,54.5,15c33.5,11.5,44.9,25.8,44.9,58.1C268.8,160.7,249.4,172.7,224.7,160.7z M96.7,215.8 c-19.2-5.4-22.4-16.7-13.6-23.1c8.1-6,21.8-10.5,21.8-10.5l56.8-20.2v23l-40.9,14.6c-7.2,2.6-8.3,6.3-2.5,8.2 c5.9,1.9,16.5,1.4,23.7-1.2l19.6-7.1v20.6c-1.2,0.2-2.6,0.4-3.9,0.7C138.2,223.9,117.3,222.6,96.7,215.8L96.7,215.8z M306.8,224.9 c2.5,0,4.8,1,6.6,2.7c1.8,1.7,2.7,4.1,2.7,6.5c0,2.5-1,4.8-2.7,6.5c-1.8,1.8-4.1,2.7-6.6,2.7s-4.8-1-6.6-2.7 c-1.8-1.7-2.7-4.1-2.7-6.5C297.5,229.1,301.7,224.9,306.8,224.9z M299.1,234.2c0,2.1,0.8,4,2.3,5.4c1.5,1.5,3.4,2.3,5.4,2.3 c4.3,0,7.7-3.5,7.7-7.7c0-2.1-0.8-4-2.3-5.5c-1.5-1.5-3.4-2.3-5.4-2.3s-4,0.8-5.4,2.3C299.9,230.2,299.1,232.1,299.1,234.2z M309.6,229.2c1,0.4,1.5,1.3,1.5,2.5c0,0.6-0.1,1.2-0.4,1.6c-0.2,0.3-0.5,0.5-0.8,0.8c0.2,0.1,0.5,0.3,0.6,0.5 c0.2,0.3,0.3,0.7,0.4,1.4l0,1.3c0,0.4,0,0.6,0.1,0.8c0.1,0.2,0.2,0.4,0.3,0.4l0.1,0.1v0.1v0.2v0.2h-0.2h-1.6h-0.1l-0.1-0.1 c-0.1-0.1-0.1-0.2-0.1-0.4c0-0.1-0.1-0.4-0.1-0.8l-0.1-1.6c0-0.6-0.2-0.9-0.6-1.1c-0.2-0.1-0.6-0.2-1.1-0.2h-2.8v4v0.2h-0.2h-1.3 h-0.2V239v-9.9v-0.2h0.2h4.6C308.4,228.9,309.1,229,309.6,229.2L309.6,229.2z M304.6,233.4h2.9c0.6,0,1-0.1,1.4-0.3 c0.3-0.2,0.4-0.6,0.4-1.2c0-0.6-0.2-1-0.6-1.2c-0.2-0.1-0.6-0.2-1-0.2h-3L304.6,233.4L304.6,233.4z"></path> </svg> 