<?xml version="1.0" encoding="UTF-8"?> <!-- Generator: Adobe Illustrator 23.0.3, SVG Export Plug-In . SVG Version: 6.00 Build 0) --> <svg xmlns:cc="http://creativecommons.org/ns#" xmlns:dc="http://purl.org/dc/elements/1.1/" xmlns:inkscape="http://www.inkscape.org/namespaces/inkscape" xmlns:rdf="http://www.w3.org/1999/02/22-rdf-syntax-ns#" xmlns:sodipodi="http://sodipodi.sourceforge.net/DTD/sodipodi-0.dtd" xmlns:svg="http://www.w3.org/2000/svg" xmlns="http://www.w3.org/2000/svg" xmlns:xlink="http://www.w3.org/1999/xlink" id="logosvg.com" x="0px" y="0px" viewBox="0 0 400 300" style="enable-background:new 0 0 400 300;" xml:space="preserve"> <style type="text/css"> .st0{fill:#9147FE;} .st1{fill:#FFFFFF;} </style> <path id="purple" inkscape:connector-curvature="0" class="st0" d="M386.5,177.1h-27.1v-33.8h-6.8v33.8h-27.1V92.5h27.1v23.7h20.4 l13.6,13.5V177.1 M318.7,143.2h-27.1v6.8h27.1v27.1H278l-13.6-13.5v-33.9l13.6-13.5h40.7L318.7,143.2 M257.6,143.2h-23.8v6.8h23.8 v27.1h-37.3l-13.6-13.5V92.5h27.1v23.7h23.8L257.6,143.2 M200,109.4h-27.1V92.5H200V109.4 M200,177.1h-27.1v-60.9H200V177.1 M166.1,177.1H84.7l-13.6-13.5v-47.4h27.1V150h6.8v-33.8h27.1V150h6.8v-33.8h27.1L166.1,177.1 M64.3,143.2H40.6v6.8h23.8v27.1H27 l-13.6-13.5V92.5h27.1v23.7h23.8L64.3,143.2 M376.3,109.4h-17V85.7h-37.2L305,109.4h-30.4l-10.2,10.2v-10.2h-23.8V85.7h-74.6v23.7 h-105L44,85.7H6.7v81.2l47.5,47.4h47.5v-13.5l13.6,13.5h91.6v-13.5l13.6,13.5h44.1v-13.5l13.6,13.5h84.8l30.5-30.5v-57.5 L376.3,109.4"></path> <path id="white" transform="matrix(0.23219248,0,0,0.23219248,-136.26131,-140.70228)" class="st1" d="M1988.6,1368.6h116.9v-145.8 h29.2v145.8h116.9v-204.1l-58.4-58.3h-87.6v-102h-116.9L1988.6,1368.6L1988.6,1368.6 M1477.4,1310.3l58.4,58.3h160.7V1252h-102.2 v-29.2h102.2v-116.6h-102.2v-102h-116.9L1477.4,1310.3L1477.4,1310.3 M1725.7,1310.3l58.4,58.3h175.3V1252h-116.9v-29.2h116.9 v-116.6h-175.3l-58.4,58.3V1310.3L1725.7,1310.3 M1331.3,1004.2h116.9v72.9h-116.9V1004.2 M863.9,1106.3H761.7v-102H644.8v306.1 l58.4,58.3h160.7V1252H761.7v-29.2h102.3V1106.3 M893.1,1310.3l58.4,58.3h350.6v-262.4h-116.9V1252H1156v-145.8h-116.8V1252H1010 v-145.8H893.1V1310.3L893.1,1310.3 M1331.3,1106.3h116.9v262.4h-116.9V1106.3"></path> </svg> 