<?xml version="1.0" encoding="UTF-8"?> <!-- Generator: Adobe Illustrator 23.0.3, SVG Export Plug-In . SVG Version: 6.00 Build 0) --> <svg xmlns:cc="http://creativecommons.org/ns#" xmlns:dc="http://purl.org/dc/elements/1.1/" xmlns:rdf="http://www.w3.org/1999/02/22-rdf-syntax-ns#" xmlns="http://www.w3.org/2000/svg" xmlns:xlink="http://www.w3.org/1999/xlink" id="logosvg.com" x="0px" y="0px" viewBox="0 0 400 300" style="enable-background:new 0 0 400 300;" xml:space="preserve"> <style type="text/css"> .st0{fill:#455A64;} .st1{fill:#25D366;} </style> <path id="grey" class="st0" d="M382.8,159.6c-0.2,1.2-0.6,2.2-1.2,3.1c-0.6,0.9-1.3,1.6-2.3,2.2c-0.9,0.6-2.1,0.8-3.5,0.8 c-1.4,0-2.5-0.3-3.5-0.8c-1-0.6-1.7-1.3-2.3-2.2c-0.6-0.9-1-1.9-1.3-3.1c-0.3-1.2-0.4-2.4-0.4-3.7c0-1.3,0.1-2.5,0.4-3.7 c0.2-1.2,0.7-2.3,1.2-3.2c0.6-0.9,1.3-1.7,2.3-2.2c0.9-0.6,2.1-0.9,3.5-0.9c1.4,0,2.5,0.3,3.4,0.9c0.9,0.6,1.7,1.3,2.3,2.3 c0.6,0.9,1,2,1.3,3.2c0.3,1.2,0.4,2.4,0.4,3.7C383.1,157.2,383,158.4,382.8,159.6 M390.8,149.8c-0.6-2-1.4-3.8-2.6-5.3 c-1.2-1.5-2.6-2.7-4.4-3.7c-1.8-0.9-3.9-1.4-6.3-1.4c-1.9,0-3.7,0.4-5.3,1.1c-1.6,0.8-2.9,2-4,3.7h-0.1v-4h-8.1v41.9h8.5v-14.7h0.1 c1,1.5,2.4,2.7,4,3.4c1.6,0.8,3.4,1.2,5.3,1.2c2.3,0,4.3-0.4,6-1.3c1.7-0.9,3.1-2.1,4.3-3.5c1.1-1.5,2-3.2,2.5-5.1 c0.6-1.9,0.8-3.9,0.8-6C391.6,154,391.4,151.9,390.8,149.8 M348.8,159.6c-0.2,1.2-0.7,2.2-1.2,3.1c-0.6,0.9-1.3,1.6-2.3,2.2 c-0.9,0.6-2.1,0.8-3.5,0.8c-1.4,0-2.5-0.3-3.5-0.8c-1-0.6-1.7-1.3-2.3-2.2c-0.6-0.9-1-1.9-1.3-3.1c-0.3-1.2-0.4-2.4-0.4-3.7 c0-1.3,0.1-2.5,0.4-3.7c0.2-1.2,0.7-2.3,1.2-3.2c0.6-0.9,1.3-1.7,2.3-2.2c0.9-0.6,2.1-0.9,3.5-0.9c1.4,0,2.5,0.3,3.4,0.9 c0.9,0.6,1.7,1.3,2.3,2.3c0.6,0.9,1,2,1.3,3.2c0.3,1.2,0.4,2.4,0.4,3.7C349.2,157.2,349,158.4,348.8,159.6 M354.3,144.5 c-1.2-1.5-2.6-2.7-4.4-3.7c-1.8-0.9-3.9-1.4-6.3-1.4c-1.9,0-3.7,0.4-5.3,1.1c-1.6,0.8-2.9,2-4,3.7h-0.1v-4h-8.1v41.9h8.5v-14.7h0.1 c1,1.5,2.4,2.7,4,3.4c1.6,0.8,3.4,1.2,5.3,1.2c2.3,0,4.3-0.4,6-1.3c1.7-0.9,3.1-2.1,4.3-3.5c1.1-1.5,2-3.2,2.6-5.1 c0.6-1.9,0.8-3.9,0.8-6c0-2.2-0.3-4.3-0.8-6.3C356.3,147.8,355.4,146,354.3,144.5 M298.2,154.8l5.6-15.7h0.1l5.4,15.7H298.2z M299.1,128.5l-16.2,42.8h9.5l3.4-9.5h16l3.2,9.5h9.8l-16-42.8H299.1z M282.2,157.8c-0.6-1-1.3-1.8-2.2-2.5c-0.9-0.7-2-1.2-3.1-1.6 c-1.2-0.4-2.4-0.7-3.6-1c-1.2-0.3-2.4-0.5-3.5-0.8c-1.2-0.2-2.2-0.5-3.1-0.8c-0.9-0.3-1.6-0.7-2.2-1.2c-0.6-0.5-0.8-1.1-0.8-1.9 c0-0.6,0.2-1.1,0.5-1.5c0.3-0.4,0.7-0.7,1.2-0.9c0.5-0.2,1-0.3,1.5-0.4c0.6-0.1,1.1-0.1,1.6-0.1c1.5,0,2.8,0.3,4,0.9 c1.1,0.6,1.7,1.7,1.9,3.3h8.1c-0.2-1.9-0.6-3.5-1.5-4.8c-0.8-1.3-1.9-2.3-3.1-3c-1.2-0.8-2.6-1.3-4.2-1.6c-1.6-0.3-3.2-0.5-4.9-0.5 c-1.7,0-3.3,0.2-4.9,0.4c-1.6,0.3-3,0.8-4.3,1.6c-1.3,0.7-2.3,1.7-3.1,3c-0.8,1.3-1.2,2.9-1.2,4.9c0,1.4,0.3,2.5,0.8,3.5 c0.6,0.9,1.3,1.7,2.2,2.3c0.9,0.6,2,1.1,3.2,1.5c1.2,0.4,2.4,0.7,3.6,1c3,0.6,5.4,1.3,7.1,1.9c1.7,0.6,2.5,1.6,2.5,2.9 c0,0.8-0.2,1.4-0.5,1.9c-0.4,0.5-0.8,0.9-1.3,1.2c-0.5,0.3-1.1,0.5-1.8,0.7c-0.7,0.1-1.3,0.2-1.9,0.2c-0.8,0-1.6-0.1-2.4-0.3 c-0.8-0.2-1.5-0.5-2.1-0.9c-0.6-0.4-1.1-1-1.5-1.6c-0.4-0.7-0.6-1.4-0.6-2.4h-8.1c0.1,2.1,0.6,3.8,1.4,5.2c0.9,1.4,2,2.5,3.3,3.3 c1.3,0.8,2.9,1.4,4.6,1.8c1.7,0.4,3.5,0.5,5.3,0.5c1.8,0,3.5-0.2,5.2-0.5c1.7-0.3,3.2-0.9,4.5-1.8c1.3-0.8,2.4-1.9,3.2-3.3 c0.8-1.4,1.2-3.1,1.2-5.1C283,159.9,282.8,158.7,282.2,157.8 M247,131h-8.5v9.3h-5.2v5.7h5.2v18.3c0,1.6,0.3,2.8,0.8,3.8 c0.5,1,1.2,1.7,2.1,2.2c0.9,0.5,1.9,0.9,3.1,1c1.2,0.2,2.4,0.3,3.7,0.3c0.8,0,1.7,0,2.6-0.1c0.9,0,1.7-0.1,2.4-0.2v-6.6 c-0.4,0.1-0.8,0.1-1.3,0.2c-0.4,0-0.9,0.1-1.4,0.1c-1.4,0-2.4-0.2-2.9-0.7c-0.5-0.5-0.7-1.4-0.7-2.9V146h6.2v-5.7H247L247,131z M222.6,159.3c0,0.5,0,1.1-0.2,1.9c-0.1,0.8-0.4,1.6-0.8,2.4c-0.4,0.8-1.1,1.5-2,2c-0.9,0.6-2.2,0.8-3.9,0.8c-0.7,0-1.3-0.1-2-0.2 c-0.6-0.1-1.2-0.3-1.7-0.6c-0.5-0.3-0.9-0.7-1.1-1.2c-0.3-0.5-0.4-1.2-0.4-1.9c0-0.8,0.1-1.5,0.4-2c0.3-0.5,0.7-0.9,1.1-1.3 c0.5-0.3,1-0.6,1.6-0.8c0.6-0.2,1.2-0.4,1.9-0.5c0.7-0.1,1.4-0.2,2-0.3c0.7-0.1,1.3-0.2,2-0.3c0.6-0.1,1.2-0.3,1.7-0.5 c0.5-0.2,1-0.4,1.3-0.7V159.3z M231.1,164.4v-16.1c0-1.9-0.4-3.4-1.3-4.5c-0.8-1.1-1.9-2-3.2-2.7c-1.3-0.6-2.8-1.1-4.4-1.3 c-1.6-0.2-3.2-0.3-4.7-0.3c-1.7,0-3.4,0.2-5.1,0.5c-1.7,0.3-3.2,0.9-4.6,1.7c-1.4,0.8-2.5,1.9-3.4,3.2c-0.9,1.3-1.4,3-1.5,5h8.5 c0.2-1.7,0.7-2.9,1.7-3.6c1-0.7,2.3-1.1,4-1.1c0.8,0,1.5,0.1,2.1,0.1c0.7,0.1,1.2,0.3,1.7,0.6c0.5,0.3,0.9,0.7,1.2,1.3 c0.3,0.5,0.5,1.3,0.5,2.2c0,0.9-0.2,1.5-0.8,2c-0.6,0.5-1.3,0.8-2.3,1.1c-1,0.2-2.1,0.4-3.3,0.5c-1.2,0.1-2.5,0.3-3.8,0.5 c-1.3,0.2-2.6,0.5-3.8,0.8c-1.3,0.3-2.4,0.9-3.4,1.5c-1,0.7-1.8,1.6-2.4,2.7c-0.6,1.1-0.9,2.6-0.9,4.4c0,1.6,0.3,3,0.8,4.1 c0.5,1.2,1.3,2.1,2.3,2.9c1,0.8,2.1,1.3,3.4,1.7c1.3,0.4,2.7,0.5,4.1,0.5c1.9,0,3.8-0.3,5.6-0.8c1.8-0.6,3.4-1.5,4.8-2.9 c0,0.5,0.1,1,0.2,1.5c0.1,0.5,0.2,1,0.4,1.5h8.6c-0.4-0.6-0.7-1.6-0.8-2.9C231.2,167.2,231.1,165.8,231.1,164.4 M196,143 c-0.8-1.1-2-2-3.4-2.6c-1.5-0.6-3.3-0.9-5.6-0.9c-1.6,0-3.2,0.4-4.9,1.2c-1.7,0.8-3.1,2.1-4.1,3.9h-0.2v-16.1h-8.5v42.8h8.5v-16.3 c0-3.2,0.5-5.4,1.6-6.8c1-1.4,2.7-2.1,5-2.1c2,0,3.5,0.6,4.3,1.9c0.8,1.3,1.2,3.2,1.2,5.7v17.5h8.5v-19.1c0-1.9-0.2-3.7-0.5-5.3 C197.4,145.4,196.8,144.1,196,143 M151,158h-0.1l-7.3-29.5h-8.8l-7.4,29.2h-0.1l-6.8-29.2H111l11.3,42.8h9.5l7.1-29.2h0.1l7.3,29.2 h9.4l11.5-42.8H158L151,158z"></path> <path id="green" class="st1" d="M8.7,149.6c0,7.7,2,15.3,5.9,22l-6.2,22.8l23.3-6.1c6.4,3.5,13.6,5.3,21,5.3h0 c24.2,0,44-19.7,44-43.9c0-11.7-4.6-22.8-12.9-31.1c-8.3-8.3-19.3-12.9-31.1-12.9C28.5,105.6,8.7,125.4,8.7,149.6 M22.6,170.4 l-0.9-1.4c-3.7-5.8-5.6-12.5-5.6-19.4c0-20.1,16.4-36.5,36.6-36.5c9.8,0,18.9,3.8,25.8,10.7c6.9,6.9,10.7,16.1,10.7,25.8 c0,20.1-16.4,36.5-36.5,36.5h0c-6.6,0-13-1.8-18.6-5.1l-1.3-0.8l-13.8,3.6L22.6,170.4z M52.7,193.6L52.7,193.6L52.7,193.6 C52.7,193.6,52.7,193.6,52.7,193.6 M41.7,131.2c-0.8-1.8-1.7-1.9-2.5-1.9c-0.6,0-1.4,0-2.1,0c-0.7,0-1.9,0.3-2.9,1.4 c-1,1.1-3.8,3.8-3.8,9.2c0,5.4,3.9,10.6,4.5,11.4c0.5,0.7,7.6,12.2,18.8,16.6c9.3,3.7,11.2,2.9,13.2,2.7c2-0.2,6.5-2.7,7.4-5.2 c0.9-2.6,0.9-4.8,0.6-5.2c-0.3-0.5-1-0.7-2.1-1.3c-1.1-0.5-6.5-3.2-7.5-3.6c-1-0.4-1.7-0.5-2.5,0.6c-0.7,1.1-2.8,3.6-3.5,4.3 c-0.6,0.7-1.3,0.8-2.4,0.3c-1.1-0.6-4.6-1.7-8.8-5.5c-3.3-2.9-5.5-6.5-6.1-7.6c-0.6-1.1-0.1-1.7,0.5-2.2c0.5-0.5,1.1-1.3,1.6-1.9 c0.5-0.6,0.7-1.1,1.1-1.8c0.4-0.7,0.2-1.4-0.1-1.9C44.8,138.8,42.7,133.4,41.7,131.2"></path> </svg> 