<?xml version="1.0" encoding="UTF-8"?> <!-- Generator: Adobe Illustrator 23.0.3, SVG Export Plug-In . SVG Version: 6.00 Build 0) --> <svg xmlns:svg="http://www.w3.org/2000/svg" xmlns="http://www.w3.org/2000/svg" xmlns:xlink="http://www.w3.org/1999/xlink" id="logosvg.com" x="0px" y="0px" viewBox="0 0 400 300" style="enable-background:new 0 0 400 300;" xml:space="preserve"> <path id="black" transform="translate(-357.71336,-784.65111)" d="M452.9,906.2v1.6c0,0.4-0.3,0.7-0.8,0.7c-2.5,0.1-4.3,0.6-5.4,1.6 c-1.2,1-2.1,2.3-2.8,4c0,0-15.2,34.9-20.5,46.5c-2,3.8-4,3.5-5.7-0.1c-2.2-4.5-6.6-14.3-9.9-21.5c-3.5,7.3-8.4,17.1-10.7,21.6 c-2.3,4-4.2,3.5-5.8,0.1c-5.3-12.5-16.2-34.4-21.3-46.7c-0.9-2.3-1.7-3.7-2.3-4.3c-0.7-0.6-2.1-0.9-4.2-1c-0.8-0.1-1.2-0.3-1.2-0.6 v-1.7l0.2-0.2c3.5,0,20.4,0,20.4,0l0.2,0.2v1.6c0,0.5-0.3,0.7-0.8,0.7l-2.1,0.1c-1.8,0.1-2.7,0.6-2.7,1.6c0,0.5,0.2,1.2,0.6,2.3 c4.1,9.9,18.2,39.6,18.2,39.6l0.5,0.1l9.1-18.1c-1.1-2.4-1.8-4-1.8-4l-6.2-12.3v0c0,0-1.2-2.5-1.6-3.3c-2.7-5.4-2.7-5.7-5.5-6.1 c-0.8-0.1-1.2-0.2-1.2-0.6v-1.7l0.2-0.2c5,0,16.1,0,16.1,0l0.4,0.1v1.7c0,0.4-0.3,0.6-0.8,0.6l-1.2,0.2c-3,0.2-2.5,1.4-0.5,5.4 l6,12.2l6.6-13.2c1.1-2.4,0.9-3,0.4-3.6c-0.3-0.3-1.1-0.8-3.1-0.9l-0.8-0.1c-0.2,0-0.4-0.1-0.5-0.2c-0.2-0.1-0.3-0.3-0.3-0.5v-1.6 l0.2-0.2c4.7,0,15.2,0,15.2,0l0,0l0.2,0.2v1.6c0,0.5-0.3,0.7-0.8,0.7c-2.5,0.1-3,0.4-3.9,1.7c-0.5,0.7-1.5,2.2-2.5,3.9l-8.6,16.1 c0,0-0.1,0.2-0.2,0.5l10.5,21.5l0.6,0.2l16.6-39.3c0.6-1.6,0.5-2.7-0.3-3.4c-0.7-0.6-1.3-1-3.2-1.1l-1.6-0.1c-0.2,0-0.4-0.1-0.5-0.2 c-0.2-0.1-0.3-0.3-0.3-0.5v-1.6l0.2-0.2c4.7,0,18.7,0,18.7,0L452.9,906.2z M459.6,956.9v-28.5c0-1.7,0.9-2.4,3.6-2.7l1.8-0.2 c0.3,0,0.5-0.2,0.5-0.4v-1.9l-0.1-0.2c0,0-6.6,0.2-8.9,0.2c-2.6,0-9.4-0.2-9.4-0.2l-0.1,0.2v2c0,0.3,0.3,0.3,0.6,0.3l1.7,0.2 c2.6,0.2,3.7,0.8,3.7,2.6v28.5c0,1.6-0.9,3-3.7,3.2l-1.7,0.2c-0.3,0-0.6,0.2-0.6,0.5v1.8l0.2,0.2c0,0,6.7-0.2,9.1-0.2 c2.6,0,9.1,0.2,9.1,0.2l0.1-0.2v-1.8c0-0.3-0.3-0.5-0.5-0.5l-1.8-0.2C460.4,959.9,459.6,958.8,459.6,956.9L459.6,956.9z M484.8,956.9L484.8,956.9v-12.7c1.9,0,3.2,0.4,4.5,2.1l9.5,11.8c1.2,1.4,1.3,2.3,1.3,3.4v1l0.1,0.1c0,0,3.1-0.1,5.2-0.1 c2.4,0,6.9,0.1,6.9,0.1l0.3-0.1v-1.8c0-0.3-0.3-0.4-0.6-0.5l-0.4-0.1c-1.7-0.3-3.8-0.9-4.8-2l-12.9-15.6c-0.4-0.5-0.8-0.9-0.8-1.4 c0-0.7,0.5-1.6,2-3.2l7.4-8.5c3.1-3.5,5.4-3.7,8.7-3.9c0.4,0,0.7-0.2,0.7-0.4v-2l-0.3-0.1c0,0-3.8,0.2-6,0.2c-2.5,0-9.4-0.2-9.4-0.2 l-0.1,0.1v2c0,0.3,0.2,0.3,0.5,0.4c1.7,0.3,2.5,1,2.5,1.7c0,1.6-2.6,4.8-6.1,8.5c-3.8,4-5.4,5.5-8.2,5.5v-12.9 c0-1.7,0.9-2.1,3.6-2.7l0.9-0.2c0.3-0.1,0.5-0.2,0.5-0.4v-1.9l-0.1-0.2c0,0-5.4,0.2-7.8,0.2c-2.6,0-9.7-0.2-9.7-0.2l-0.1,0.2v2 c0,0.3,0.3,0.3,0.6,0.3l1.7,0.2c2.7,0.2,3.7,0.8,3.7,2.6v28.5c0,1.6-1.1,3-3.7,3.2l-1.7,0.2c-0.3,0-0.6,0.2-0.6,0.5v1.8l0.2,0.2 c0,0,7-0.2,9.4-0.2c2.6,0,7.9,0.2,7.9,0.2l0.1-0.2v-1.8c0-0.3-0.3-0.4-0.5-0.5l-0.9-0.2C485.9,959.7,484.8,958.8,484.8,956.9 L484.8,956.9z M530.9,956.9v-28.5c0-1.7,0.9-2.4,3.6-2.7l1.8-0.2c0.3,0,0.5-0.2,0.5-0.4v-1.9l-0.1-0.2c0,0-6.6,0.2-8.9,0.2 c-2.6,0-9.4-0.2-9.4-0.2l-0.1,0.2v2c0,0.3,0.3,0.3,0.6,0.3l1.7,0.2c2.6,0.2,3.7,0.8,3.7,2.6v28.5c0,1.6-0.9,3-3.7,3.2l-1.7,0.2 c-0.3,0-0.6,0.2-0.6,0.5v1.8l0.2,0.2c0,0,6.7-0.2,9.1-0.2c2.6,0,9.1,0.2,9.1,0.2l0.1-0.2v-1.8c0-0.3-0.3-0.5-0.5-0.5l-1.8-0.2 C531.8,959.9,530.9,958.8,530.9,956.9L530.9,956.9z M549.4,928.6L549.4,928.6l0,28.7c0,1.6-0.9,2.4-3.5,2.7l-1.8,0.3 c-0.3,0.1-0.5,0.2-0.5,0.5v1.8l0.1,0.2c0,0,6.4-0.2,8.8-0.2c2.6,0,9.5,0.2,9.5,0.2l0.1-0.2v-1.8c0-0.3-0.3-0.4-0.6-0.5l-1.7-0.3 c-2.7-0.4-3.8-0.9-3.8-2.7v-11.4c1.5,0.7,3.3,0.9,5.4,0.9c12.1,0,14.6-8,14.6-13.2c0-4.5-2.2-10.4-14.4-10.4c-3.2,0-6.6,0.2-9,0.2 c-2.5,0-7.5-0.2-8.8-0.2l-0.2,0.1v2c0,0.2,0.1,0.4,0.6,0.4C548.3,925.9,549.4,926,549.4,928.6L549.4,928.6z M555.9,943.5l0-14.9 c0-2.2,1-3,5.1-3c4.7,0,8,1.6,8,9c0,6.6-2.5,9.7-7.6,9.7C559.8,944.3,557.7,944.2,555.9,943.5L555.9,943.5z M590.7,962.6 L590.7,962.6l15,0c2.6,0,7.6,0.2,7.6,0.2l0.2-0.2l1.7-9.8l-2.1-0.3c-1,4.4-3.4,7.2-7.8,7.2h-8.1c-1.5,0-2.5-1.6-2.5-3.2v-13.1h6.4 c2.2,0,3,0.9,3.3,2.7l0.4,1.9c0,0.3,0.2,0.4,0.6,0.4h1.4l0.2-0.2c-0.2-2-0.5-3.8-0.5-5.9c0-2.1,0.3-4.4,0.5-6.3c0-0.2,0-0.3-0.2-0.3 h-1.4c-0.3,0-0.5,0.2-0.5,0.4l-0.5,1.8c-0.3,1.7-0.9,2.7-3.3,2.7h-6.4v-12.4c0-1.4,0.9-2,2.5-2h6.8c5.5,0,7.1,4.5,8,7.7l2.1-0.3 c-0.6-3.2-1.2-6.6-1.3-10.3l-0.2-0.2c0,0-6.1,0.2-8.6,0.2h-12.6c-2.6,0-9.2-0.2-9.2-0.2l-0.1,0.2v2c0,0.1,0,0.3,0.5,0.3l2,0.2 c2.4,0.2,3.4,0.5,3.4,2.5v28.2c0,1.7-0.8,3.4-3.4,3.7l-2,0.2c-0.4,0-0.5,0.3-0.5,0.4v1.9l0.1,0.2 C582.2,962.8,588.1,962.6,590.7,962.6L590.7,962.6z M622.8,960.3c-0.3,0-0.5,0.3-0.5,0.5v1.8l0.1,0.2c0,0,6.5-0.2,9.1-0.2 c2.6,0,5.6,0.2,12.5,0.2c9.5,0,20.1-4.4,20.1-19.4c0-11.4-7-20.3-21.3-20.3c-2.2,0-9.7,0.2-11.3,0.2c-1.5,0-9.1-0.2-9.1-0.2 l-0.1,0.2v1.9c0,0.3,0.3,0.4,0.6,0.4l1.9,0.2c2.8,0.2,3.4,0.2,3.4,2.5v28.2c0,2.6-0.9,3.4-3.4,3.7L622.8,960.3L622.8,960.3z M641.9,960.3c-6.5,0-7.1-1.5-7.1-3.8v-28.2c0-2.1,2.1-2.7,5.5-2.7c14.4,0,16.3,10.3,16.3,19.2C656.6,956.8,651.3,960.3,641.9,960.3 L641.9,960.3z M684.2,956.9L684.2,956.9l0-28.5c0-1.7,0.9-2.4,3.6-2.7l1.8-0.2c0.3,0,0.5-0.2,0.5-0.4v-1.9l-0.1-0.2 c0,0-6.6,0.2-8.9,0.2c-2.6,0-9.4-0.2-9.4-0.2l-0.1,0.2v2c0,0.3,0.3,0.3,0.6,0.3l1.7,0.2c2.6,0.2,3.7,0.8,3.7,2.6v28.5 c0,1.6-0.9,3-3.7,3.2l-1.7,0.2c-0.3,0-0.6,0.2-0.6,0.5v1.8l0.2,0.2c0,0,6.7-0.2,9.1-0.2c2.6,0,9.1,0.2,9.1,0.2l0.1-0.2v-1.8 c0-0.3-0.3-0.5-0.5-0.5l-1.8-0.2C685.1,959.9,684.2,958.8,684.2,956.9L684.2,956.9z M710.5,960.2c-3.2-0.3-4.3-2.1-3.4-4.3l5-12.4 c0.4-1.1,0.9-1.4,3-1.4h17.8l5.2,14.4c0.9,2.4-0.3,3.4-3.6,3.7l-2.4,0.2c-0.4,0-0.6,0.3-0.6,0.7v1.6l0.1,0.2c0,0,8.4-0.2,11.4-0.2 c3.3,0,9.9,0.2,9.9,0.2l0.3-0.2V961c0-0.4-0.4-0.7-0.9-0.7l-0.9-0.1c-3.4-0.3-5.1-1.6-6.3-5L727.4,909c-0.7-1.7-1.1-2.6-2.3-2.6 c-1.3,0-2,0.9-2.9,3.1l-19,44.5c-2.4,5.5-4.5,6.2-8.3,6.4c-0.4,0-0.7,0.3-0.7,0.7v1.6l0.2,0.2c0,0,5.5-0.2,7.7-0.2 c2.1,0,11.4,0.2,11.4,0.2l0.2-0.2V961c0-0.4-0.3-0.7-0.7-0.7L710.5,960.2L710.5,960.2z M731.5,938.4h-14.9c-1.9,0-2.5-0.3-2.1-1.1 l8.5-21.7h0.2L731.5,938.4L731.5,938.4z"></path> </svg> 