<?xml version="1.0" standalone="no"?>
<!DOCTYPE svg PUBLIC "-//W3C//DTD SVG 20010904//EN"
 "http://www.w3.org/TR/2001/REC-SVG-20010904/DTD/svg10.dtd">
<svg version="1.0" xmlns="http://www.w3.org/2000/svg"
 width="1977.000000pt" height="1977.000000pt" viewBox="0 0 1977.000000 1977.000000"
 preserveAspectRatio="xMidYMid meet">
<metadata>
Created by potrace 1.14, written by Peter Selinger 2001-2017
</metadata>
<g transform="translate(0.000000,1977.000000) scale(0.100000,-0.100000)"
fill="#000000" stroke="none">
<path d="M2558 18575 c-2 -2 -27 -6 -57 -10 -30 -4 -63 -9 -75 -11 -12 -2 -36
-7 -55 -10 -19 -3 -45 -10 -58 -15 -13 -5 -23 -7 -23 -5 0 7 -144 -41 -225
-74 -206 -86 -377 -201 -541 -365 -163 -163 -274 -325 -358 -525 -43 -100 -91
-251 -102 -315 -2 -16 -11 -68 -19 -115 -15 -86 -14 -392 1 -490 13 -88 62
-266 99 -360 57 -144 110 -236 235 -414 60 -85 218 -238 345 -334 156 -118
402 -228 620 -277 189 -42 -75 -40 7665 -39 4067 0 7419 4 7449 8 30 4 63 10
75 12 12 2 48 9 81 15 33 6 113 28 178 50 265 86 490 227 680 423 72 74 191
225 226 286 64 111 82 147 118 230 60 141 100 284 120 436 10 76 10 394 -1
459 -121 760 -695 1326 -1451 1429 -84 11 -1309 14 -7512 14 -4076 0 -7413 -1
-7415 -3z"/>
<path d="M2588 14095 c-1 -1 -34 -5 -72 -9 -250 -24 -516 -122 -749 -278 -111
-74 -129 -89 -257 -218 -241 -242 -395 -543 -456 -890 -21 -118 -23 -158 -20
-315 5 -187 8 -217 33 -325 8 -36 16 -72 18 -80 2 -8 15 -50 29 -93 101 -308
302 -594 556 -791 121 -94 294 -196 395 -233 116 -43 150 -54 216 -72 107 -28
182 -41 284 -48 122 -9 12586 -9 12700 0 50 4 104 9 120 12 246 47 428 115
613 229 380 236 641 590 751 1021 41 161 50 246 46 445 -2 96 -6 189 -9 205
-4 17 -14 66 -22 110 -49 246 -178 515 -342 715 -106 129 -324 321 -412 363
-8 4 -28 16 -45 27 -58 37 -201 103 -296 135 -83 29 -140 43 -329 82 -33 6
-12744 15 -12752 8z"/>
<path d="M2558 9615 c-1 -2 -27 -6 -57 -10 -30 -4 -63 -9 -75 -11 -12 -2 -37
-7 -56 -10 -19 -3 -38 -8 -41 -10 -3 -2 -19 -6 -36 -8 -16 -3 -66 -18 -109
-32 -507 -169 -905 -567 -1070 -1072 -64 -194 -78 -286 -78 -512 -1 -220 7
-287 56 -469 116 -431 432 -821 833 -1032 192 -100 385 -158 624 -186 75 -9
14042 -9 14151 0 111 9 133 13 270 47 781 194 1323 944 1259 1742 -21 258 -64
414 -185 664 -41 85 -154 247 -234 336 -66 73 -100 106 -220 209 -45 39 -189
130 -276 174 -102 52 -189 86 -304 119 -78 22 -117 31 -235 52 -38 7 -14209
16 -14217 9z"/>
<path d="M2588 5135 c-1 -1 -37 -6 -78 -9 -165 -15 -438 -100 -595 -186 -343
-188 -614 -488 -759 -841 -35 -86 -82 -234 -91 -293 -3 -17 -8 -38 -10 -46
-26 -93 -27 -556 -1 -598 2 -4 7 -25 10 -47 17 -107 70 -261 135 -395 46 -94
46 -93 115 -198 232 -354 612 -614 1031 -707 188 -41 104 -40 4080 -39 2096 1
3829 5 3852 7 23 3 55 8 70 11 15 3 48 8 73 12 24 3 47 7 51 9 3 2 20 7 37 10
64 11 220 68 327 120 343 166 616 440 782 785 49 100 106 261 118 331 3 18 8
35 10 39 14 23 37 230 38 345 4 572 -286 1110 -768 1424 -172 112 -413 208
-600 240 -33 5 -76 13 -95 17 -32 7 -7724 16 -7732 9z"/>
</g>
</svg>
