<svg id="Layers" xmlns="http://www.w3.org/2000/svg" viewBox="0 0 136.94 130.32"><defs><style>.cls-1{fill:#fff;}.cls-2{fill:#46a546;}.cls-3{fill:#f89406;}.cls-4{fill:#c43c35;}.cls-5{fill:#999;}.cls-6{fill:none;stroke:#000;stroke-miterlimit:10;stroke-width:0.1px;}.cls-7{font-size:1px;}.cls-10,.cls-12,.cls-14,.cls-16,.cls-7{font-family:MyriadPro-Regular, Myriad Pro;}.cls-8{letter-spacing:-0.01em;}.cls-9{letter-spacing:0em;}.cls-10{font-size:0.6px;}.cls-11{letter-spacing:-0.01em;}.cls-12{font-size:2px;}.cls-13{letter-spacing:0em;}.cls-14{font-size:0.8px;}.cls-15{letter-spacing:-0.01em;}.cls-16{font-size:12px;}</style></defs><g id="Brand_Buidelines" data-name="Brand Buidelines"><rect class="cls-1" width="136.94" height="130.32"/><path class="cls-2" d="M15.17,5.15h104a12,12,0,0,1,12,12h0a12,12,0,0,1-12,12h-104a12,12,0,0,1-12-12h0A12,12,0,0,1,15.17,5.15Z"/><path class="cls-3" d="M15.17,37.15h88.64a12,12,0,0,1,12,12h0a12,12,0,0,1-12,12H15.17a12,12,0,0,1-12-12h0A12,12,0,0,1,15.17,37.15Z"/><path class="cls-4" d="M15.17,69.15h98.88a12,12,0,0,1,12,12h0a12,12,0,0,1-12,12H15.17a12,12,0,0,1-12-12h0A12,12,0,0,1,15.17,69.15Z"/><path class="cls-5" d="M15.17,101.15H68a12,12,0,0,1,12,12h0a12,12,0,0,1-12,12H15.17a12,12,0,0,1-12-12h0A12,12,0,0,1,15.17,101.15Z"/></g><g id="Lines"><line class="cls-6" x1="2.49" y1="97.48" x2="126.72" y2="97.48"/><line class="cls-6" x1="126.72" y1="97.48" x2="126.72" y2="64.94"/><line class="cls-6" x1="126.72" y1="64.99" x2="2.48" y2="64.99"/><line class="cls-6" x1="2.49" y1="64.99" x2="2.49" y2="97.48"/><line class="cls-6" x1="116.48" y1="64.99" x2="116.48" y2="33.03"/><line class="cls-6" x1="116.48" y1="33.03" x2="2.49" y2="33.03"/><line class="cls-6" x1="2.49" y1="33.03" x2="2.48" y2="64.99"/><line class="cls-6" x1="2.49" y1="97.48" x2="2.49" y2="127.59"/><line class="cls-6" x1="2.49" y1="127.59" x2="80.64" y2="127.59"/><line class="cls-6" x1="80.64" y1="127.59" x2="80.64" y2="97.52"/><line class="cls-6" x1="131.84" y1="33.03" x2="131.84" y2="2.57"/><line class="cls-6" x1="131.84" y1="2.57" x2="2.49" y2="2.57"/><line class="cls-6" x1="2.49" y1="2.57" x2="2.49" y2="33.03"/><line class="cls-6" x1="131.84" y1="33.03" x2="116.48" y2="33.03"/></g><g id="Text"><text class="cls-7" transform="translate(39.89 97.85) rotate(90)">3,66 <tspan class="cls-8" x="1.96" y="0">p</tspan><tspan class="cls-9" x="2.51" y="0">x</tspan></text><text class="cls-7" transform="translate(39.89 93.96) rotate(90)">3,66 <tspan class="cls-8" x="1.96" y="0">p</tspan><tspan class="cls-9" x="2.51" y="0">x</tspan></text><text class="cls-7" transform="translate(39.89 65.66) rotate(90)">3,66 <tspan class="cls-8" x="1.96" y="0">p</tspan><tspan class="cls-9" x="2.51" y="0">x</tspan></text><text class="cls-7" transform="translate(39.89 61.63) rotate(90)">3,66 <tspan class="cls-8" x="1.96" y="0">p</tspan><tspan class="cls-9" x="2.51" y="0">x</tspan></text><text class="cls-7" transform="translate(39.31 33.57) rotate(90)">3,66 <tspan class="cls-8" x="1.96" y="0">p</tspan><tspan class="cls-9" x="2.51" y="0">x</tspan></text><text class="cls-7" transform="translate(39.31 29.6) rotate(90)">3,66 <tspan class="cls-8" x="1.96" y="0">p</tspan><tspan class="cls-9" x="2.51" y="0">x</tspan></text><text class="cls-10" transform="translate(39.31 2.95) rotate(90)">2,58 <tspan class="cls-11" x="1.17" y="0">p</tspan><tspan x="1.51" y="0">x</tspan></text><text class="cls-10" transform="translate(40.37 125.51) rotate(90)">2,58 <tspan class="cls-11" x="1.17" y="0">p</tspan><tspan x="1.51" y="0">x</tspan></text><text class="cls-12" transform="translate(116.86 45.5) rotate(90)">31,96 <tspan class="cls-8" x="4.94" y="0">p</tspan><tspan class="cls-13" x="6.05" y="0">x</tspan></text><text class="cls-12" transform="translate(127.56 77.54) rotate(90)">31,96 <tspan class="cls-8" x="4.94" y="0">p</tspan><tspan class="cls-13" x="6.05" y="0">x</tspan></text><text class="cls-12" transform="translate(132.46 13.12) rotate(90)">31,96 <tspan class="cls-8" x="4.94" y="0">p</tspan><tspan class="cls-13" x="6.05" y="0">x</tspan></text><text class="cls-12" transform="translate(81.22 109.5) rotate(90)">31,96 <tspan class="cls-8" x="4.94" y="0">p</tspan><tspan class="cls-13" x="6.05" y="0">x</tspan></text><text class="cls-12" transform="translate(64.6 94.99)">122,88 <tspan class="cls-8" x="5.97" y="0">p</tspan><tspan class="cls-13" x="7.08" y="0">x</tspan></text><text class="cls-12" transform="translate(64.81 68.62)">122,88 <tspan class="cls-8" x="5.97" y="0">p</tspan><tspan class="cls-13" x="7.08" y="0">x</tspan></text><text class="cls-12" transform="translate(64.6 63.6)">112,64 <tspan class="cls-8" x="5.97" y="0">p</tspan><tspan class="cls-13" x="7.08" y="0">x</tspan></text><text class="cls-12" transform="translate(65.02 35.6)">112,64 <tspan class="cls-8" x="5.97" y="0">p</tspan><tspan class="cls-13" x="7.08" y="0">x</tspan></text><text class="cls-12" transform="translate(66.09 31.73)">128 <tspan class="cls-8" x="3.5" y="0">p</tspan><tspan class="cls-13" x="4.61" y="0">x</tspan></text><text class="cls-12" transform="translate(66.09 4.73)">128 <tspan class="cls-8" x="3.5" y="0">p</tspan><tspan class="cls-13" x="4.61" y="0">x</tspan></text><text class="cls-12" transform="translate(44.84 126.93)">76,8 <tspan class="cls-8" x="3.92" y="0">p</tspan><tspan x="5.03" y="0">x</tspan></text><text class="cls-12" transform="translate(44.95 100.12)">76,8 <tspan class="cls-8" x="3.92" y="0">p</tspan><tspan x="5.03" y="0">x</tspan></text><text class="cls-10" transform="translate(40.37 128.07) rotate(90)">2,58 <tspan class="cls-11" x="1.17" y="0">p</tspan><tspan x="1.51" y="0">x</tspan></text><text class="cls-10" transform="translate(39.31 0.16) rotate(90)">2,58 <tspan class="cls-11" x="1.17" y="0">p</tspan><tspan x="1.51" y="0">x</tspan></text><text class="cls-14" transform="translate(0 17.66)">2,49 <tspan class="cls-15" x="1.57" y="0">p</tspan><tspan x="2.01" y="0">x</tspan></text><text class="cls-14" transform="translate(0 49.32)">2,49 <tspan class="cls-15" x="1.57" y="0">p</tspan><tspan x="2.01" y="0">x</tspan></text><text class="cls-14" transform="translate(0 81.37)">2,49 <tspan class="cls-15" x="1.57" y="0">p</tspan><tspan x="2.01" y="0">x</tspan></text><text class="cls-14" transform="translate(0 113.15)">2,49 <tspan class="cls-15" x="1.57" y="0">p</tspan><tspan x="2.01" y="0">x</tspan></text><text class="cls-16" transform="translate(46.17 20.2)">#46a546</text><text class="cls-16" transform="translate(39.31 52.45)">#f89406</text><text class="cls-16" transform="translate(46.17 84.49)">#c43c35</text><text class="cls-16" transform="translate(27.39 117.24)">#999</text></g></svg>